<?xml version="1.0" encoding="utf-8"?>
<!-- Generator: Adobe Illustrator 29.4.0, SVG Export Plug-In . SVG Version: 9.03 Build 0)  -->
<svg version="1.0" id="Layer_1" xmlns:xodm="http://www.corel.com/coreldraw/odm/2003"
	 xmlns="http://www.w3.org/2000/svg" xmlns:xlink="http://www.w3.org/1999/xlink" x="0px" y="0px" viewBox="0 0 344.8 153.4"
	 style="enable-background:new 0 0 344.8 153.4;" xml:space="preserve">
<style type="text/css">
	.st0{fill:#F58634;}
	.st1{fill:#373435;}
	.st2{fill:#373435;stroke:#FFFFFF;stroke-width:0.4997;stroke-miterlimit:10;}
	.st3{fill-rule:evenodd;clip-rule:evenodd;fill:#FEFEFE;}
</style>
<g>
	<path class="st0" d="M166.9,0.2c7.9-0.6,15.7,0.6,23.6,0.6c25.7,1.4,51.2,6.5,75.1,15.9c5.1,2.1,9.9,4.7,14.8,7.1
		c1.8,1,4,1.6,5.2,3.5c-2.2,0.6-4.4,3.2-6.7,1.6c-13-7.7-27.3-12.9-41.9-16.8c-29.3-7.4-59.8-9.3-89.8-6.7
		c-25.7,2.5-51.4,8.4-74.7,19.9c-2.6,1.3-4.9,3.3-7.8,4.1c-1.8-0.4-3.5-1.1-5.2-2c0.3-1.2,1.6-1.5,2.5-2.2
		c12.7-7.3,26.6-12.3,40.7-16.2c14.8-3.9,29.9-6.6,45.2-7.7C154.2,0.5,160.6,0.9,166.9,0.2z"/>
	<path class="st0" d="M146.5,9.5c8.4-1,17-1.2,25.5-1.2c13.2-0.3,26.5,0.8,39.5,2.9c20.2,3,40.2,8.9,58.3,18.5
		c1.5,0.7,2.6,1.9,3.8,3.1c-4.8,0.5-9.5,1.1-14.3,0.9c-9.6-0.6-19.3-1.4-28.7-4c-6.8-1.5-13.2-4.4-20-6.3
		c-21.4-5.9-44.1-6.1-65.8-1.8c-11.4,1.8-22,6.3-33.2,8.8c-7.7,2-15.6,2.7-23.5,3.3C82.8,33.5,77.2,34,72,32.4
		c0.7-0.7,1.3-1.4,2.2-1.9C96.3,18.2,121.4,12.1,146.5,9.5L146.5,9.5z"/>
	<path class="st1" d="M0,23.2c5.8-3.8,12.9-4.7,19.6-5.7c2.8-0.3,5.8-0.9,8.4,0.5c10.9,5,22,9.6,32.9,14.5c4.4,1.7,8.6,4.5,13.5,4.7
		c6.3,0.8,12.7,0.9,19,0c11.1-0.6,22.1-3.1,32.6-6.7c28.4-9.3,59.8-11.2,88.4-1.8c18.5,7,38.6,10.6,58.3,8.3
		c3.4-0.6,6.3-2.3,9.4-3.7c9.3-3.8,18.4-8.2,27.7-12c3.2-1.4,6.2-3.1,9.6-4.1c4-0.6,8,0.5,12,1.1c4.7,0.9,9.6,1.8,13.4,4.9
		c-5.1,0.6-10.2-0.2-15.3,0.4c-4.3,0.7-9,0.6-12.8,3.1c-12.4,7.8-25.1,15.2-37.5,23c-1.9,1.2-3.8,2.6-6.1,3.1
		c-3.7,0.7-7.5-0.2-11.2,0.5c-4,0.6-8.1,0.2-12.1,0.6c-5.2,0.8-10.4,0.2-15.6,1c-5,0.2-10,0.3-15,0.8c-0.1,2-0.5,4-0.9,6
		c-2.8,1.2-5.9,1.6-8.7,3.1c-2.4,3.8-3.8,8.2-4.5,12.6c0.9,3,3.6,5.1,4.7,8.1c-0.2,0.9-1.2,1.2-1.8,1.8c-3.4,2.3-6.9,4.5-9.9,7.2
		c-0.8,0.7-1.4,1.6-1.6,2.7c-1.1,4.8-1.3,9.8-2.6,14.6c-1.1,3.8-6.3,4.5-6.8,8.6c-0.6,3,0,6.1-0.6,9.2c-1,5.2,0.2,10.7-1.6,15.6
		c-2,2.6-4.4,4.8-6.7,7.2c-1.3,1.7-3.6,0.9-5.5,1.1c-2-0.2-4.6,0.6-6.2-1.1c-2.1-2-4-4.3-5.8-6.6c-0.8-0.9-1.1-2-1.3-3.2
		c-0.5-7.4-0.9-14.7-1.4-22.1c0-4.3-6.3-4.7-6.9-8.8c-0.8-5-1.5-10.1-2.7-15c-0.2-1.3-1.3-2.2-2.3-2.9c-3.7-2.7-7.5-5.1-11-7.9
		c1.6-2.5,3.1-4.9,4.6-7.4c0.9-1.3-0.1-2.8-0.5-4.2c-1.1-2.8-1.8-5.8-3-8.5c-2.5-2-6-2.3-8.9-3.6c-0.8-2-0.8-4.2-1.2-6.2
		c-5.1,0-10.2-0.9-15.4-0.8c-4.6,0.1-9.1-0.9-13.8-0.7c-3.9,0.2-7.8-0.6-11.7-0.6c-4.1-0.1-8.2-0.3-12.3-0.7
		c-2.6-0.3-4.7-1.8-6.8-3.1C53.4,42,40.7,34,27.7,26.4c-5.8-2.7-12.4-3-18.7-3C6,23.3,2.9,24.7,0,23.2L0,23.2z M151.5,27.1
		c-8.4,1.6-17,3.1-24.8,6.8c1.2,2.4,2.8,4.6,3.4,7.2c0.9,3.5,0.3,7.2-1.2,10.5c-0.7,2.3-1.1,5.9,1.6,7c3,1.5,6.3,2.2,9.3,3.7
		c1.8,3.1,1.6,7.3,4.3,10c4.4,4.2,9.6,7.5,14,11.6c-2.4,0.9-4.8,2.3-7.4,2.2c-2.8-1.3-5-3.4-7.9-4.5c-0.8,1.2-1.6,2.4-2.3,3.6
		c3.2,2.7,6.9,4.9,10.2,7.5c1.7,5.6,2,11.4,3.4,17.1c0.9,3.5,5.8,4.2,6.5,7.8c0.8,8.5,0.2,17.2,1.5,25.7c1.6,2.7,3.7,5.3,6.1,7.4
		c2.7,0.3,5.5,0.3,8.2,0c2.5-2.2,5.1-4.6,6.7-7.6c1.1-8.4,0.5-16.9,0.9-25.4c1-3.7,5.9-4.6,6.8-8.4c1.3-5.3,1.6-10.7,3-15.9
		c2.9-3.1,7.1-4.8,10.1-7.8c0-1.4-1.2-2.5-1.6-3.8c-2.5,0.7-4.4,2.4-6.6,3.7c-2.9,2.1-6.2-0.4-9-1.5c4.5-3.8,9.2-7.2,13.6-11
		c3-2.5,2.8-6.8,4.5-10.1c3.5-2.4,8.2-2.4,11.3-5.3c1-3.2-0.3-6.4-1.3-9.4c-1.6-4.9,1-9.8,3.3-14c-1.8-0.9-3.7-1.8-5.7-2.4
		C192.8,25.1,171.7,23.7,151.5,27.1L151.5,27.1z"/>
	<path class="st0" d="M41.1,40.6c2.2-1.1,4.1,1.5,5.7,2.7c-2.4,2.9-5.2,5.6-7.2,8.8c-4.9,7.6-8.4,16.7-7.6,25.8
		c0.8,7.7,3.7,15.3,8.4,21.5c6,8.6,14.5,15.1,23.2,20.8c23.3,14,50.1,21,76.9,24.3c4.9,0.5,9.8,0.7,14.7,1.4c1.3,1.1,2.3,2.6,3.2,4
		c-3.3,0-6.7,0.1-10-0.5c-29.3-2.4-58.7-9.2-84.8-23.1c-11.4-6.3-22.3-14.2-30.2-24.7c-5.8-7.5-9.4-16.8-9.6-26.4
		C24.4,61.9,31.3,49.4,41.1,40.6L41.1,40.6z"/>
	<path class="st0" d="M297.9,43c1.8-1,3.7-2.1,5.4-3.3c7.9,7.5,14.6,16.9,16.8,27.8c1,4.1,0.7,8.4,0.6,12.6c-1.5,12.3-9,23-18,31.2
		c-18.5,16.9-42.6,26-66.5,32c-12.5,2.9-25.2,5.1-38.1,6c-3.9,0.6-7.8,0.8-11.7,0.6c1.1-1.4,2-3.2,3.8-3.9c4.2-0.9,8.5-0.6,12.7-1.2
		c20.7-2.4,41.2-7,60.4-15.2c11.7-4.9,22.8-11.5,32.3-20c8.1-7.5,15.1-16.9,16.9-28c1.8-9-0.5-18.4-5.1-26.3
		C304.9,50.7,301.4,46.8,297.9,43L297.9,43z"/>
	<path class="st0" d="M40.2,75.3C40.1,64.4,45.5,54.2,53,46.6c5.9,3.4,11.5,7.6,17.8,10.3c7.6,0.7,15.3,0.5,22.8,1.4
		c4.6,0.2,9.3-0.1,13.9,0.6c4.9,0.6,9.9-0.3,14.8,0.9c0.4,1.6,0.5,3.3,0.6,4.9c3.1,1.3,6.5,1.8,9.5,3.4c1.3,2.6,2.7,5.5,2.9,8.5
		c-1.3,3.7-3.9,6.8-5.8,10.3c4.6,3.6,9.9,6.4,14.1,10.5c0.9,0.8,1.2,2.1,1.5,3.3c0.8,4.3,1.3,8.6,2.3,12.9c0.6,4.1,6.5,4.7,6.7,8.9
		c0.4,6.4,1,12.7,1.1,19.1c-27.9-1.6-55.9-8.1-80.7-21.3c-10.1-5.9-20-12.9-26.8-22.7C43.2,91.2,40,83.3,40.2,75.3L40.2,75.3z"/>
	<path class="st0" d="M275,56.9c5.9-3.2,11.5-7,17.3-10.3c6.9,7.4,12.3,17,12.7,27.3c0.6,8.7-3.1,17.1-7.8,24.2
		c-8.2,10.9-19.6,18.8-31.6,24.9c-21,10.3-44,15.8-67.2,18.1c-2.9,0.3-5.9,0.5-8.9,0.6c0.8-6.8,0.9-13.7,1.6-20.6
		c1.6-2.6,5-3.5,6.3-6.4c1.6-5,1.7-10.3,2.8-15.4c0.2-1.7,1.8-2.7,3-3.7c4-3,8.2-5.6,12-8.7c-1.7-3.5-3.9-6.8-5.9-10.2
		c0.9-2.9,1.9-5.7,2.9-8.6c3.1-1.1,6.2-2.1,9.4-3.1c0.5-2,1-3.9,1.5-5.9c12.5,0.2,24.9-1.3,37.3-1.6C265.3,56.8,270.2,57.5,275,56.9
		L275,56.9z"/>
	<path class="st2" d="M161.8,77.4c0.8,0.4,1.8,0.7,2.5,1.4c2.3,5.4,1.8,11.4,2,17.1c0.6,4.3,0.2,8.7,1,13c0.4,4.6,0,9.1,0.1,13.7
		c0,1.3,0.8,2.3,1.3,3.4c1.1-0.2,2.2-0.6,3.4-0.9c1.1,0.2,2.1,0.6,3.1,0.9c0.8-1.1,2.1-2,2-3.4c0.1-5.5-0.1-11,0-16.5
		c1.2-9.3-0.1-19,3.1-28c0.9,0.1,1.7,0.1,2.6,0.2c-3.6,5.6-1.9,12.2-1.9,18.7c-0.3,15.2-1,30.5,0.3,45.7c-2.3,2-4.6,4.2-7.2,5.9
		c-0.6-1.4-1.3-2.8-1.9-4.2c-0.6,1.4-1.2,2.8-1.8,4.1c-2.4-1.5-4.4-3.4-6.6-5.1c-0.1-7.4,0.2-14.8,0.6-22.1c0.1-8,0.3-15.8-0.2-23.9
		c-0.3-3.4-1.3-7.2-1.8-10.6C162.1,83.4,162.4,80.8,161.8,77.4L161.8,77.4z"/>
	<path class="st3" d="M144.1,72.2c4.4,4.2,9.6,7.5,14,11.6c-2.4,0.9-4.8,2.3-7.4,2.2c-2.8-1.3-5-3.4-7.9-4.5
		c-0.8,1.2-1.6,2.4-2.3,3.6c3.2,2.7,6.9,4.9,10.2,7.5c1.7,5.6,2,11.4,3.4,17.1c0.9,3.5,5.8,4.2,6.5,7.8c0.8,8.5,0.2,17.2,1.5,25.7
		c1.6,2.7,3.7,5.3,6.1,7.4c2.7,0.3,5.5,0.3,8.2,0c2.5-2.2,5.1-4.6,6.7-7.6c1.1-8.4,0.5-16.9,0.9-25.4c1-3.7,5.9-4.6,6.8-8.4
		c1.3-5.3,1.6-10.7,3-15.9c2.9-3.1,7.1-4.8,10.1-7.8c0-1.4-1.2-2.5-1.6-3.8c-2.5,0.7-4.4,2.4-6.6,3.7c-2.9,2.1-6.2-0.4-9-1.5
		c4.5-3.8,9.2-7.2,13.6-11c3-2.5,2.8-6.8,4.5-10.1c3.5-2.4,8.2-2.4,11.3-5.3c1-3.2-0.3-6.4-1.3-9.4c-1.6-4.9,1-9.8,3.3-14
		c-1.8-0.9-3.7-1.8-5.7-2.4c-19.6-6.3-40.6-7.7-60.9-4.4c-8.4,1.6-17,3.1-24.8,6.8c1.2,2.4,2.8,4.6,3.4,7.2
		c0.9,3.5,0.3,7.2-1.2,10.5c-0.7,2.3-1.1,5.9,1.6,7c3,1.5,6.3,2.2,9.3,3.7C141.5,65.4,141.3,69.6,144.1,72.2L144.1,72.2z
		 M161.8,77.4c0.8,0.4,1.8,0.7,2.5,1.4c2.3,5.4,1.8,11.4,2,17.1c0.6,4.3,0.2,8.7,1,13c0.4,4.6,0,9.1,0.1,13.7c0,1.3,0.8,2.3,1.3,3.4
		c1.1-0.2,2.2-0.6,3.4-0.9c1.1,0.2,2.1,0.6,3.1,0.9c0.8-1.1,2.1-2,2-3.4c0.1-5.5-0.1-11,0-16.5c1.2-9.3-0.1-19,3.1-28
		c0.9,0.1,1.7,0.1,2.6,0.2c-3.6,5.6-1.9,12.2-1.9,18.7c-0.3,15.2-1,30.5,0.3,45.7c-2.3,2-4.6,4.2-7.2,5.9c-0.6-1.4-1.3-2.8-1.9-4.2
		c-0.6,1.4-1.2,2.8-1.8,4.1c-2.4-1.5-4.4-3.4-6.6-5.1c-0.1-7.4,0.2-14.8,0.6-22.1c0.1-8,0.3-15.8-0.2-23.9
		c-0.3-3.4-1.3-7.2-1.8-10.6C162.1,83.4,162.4,80.8,161.8,77.4L161.8,77.4z"/>
</g>
</svg>
