<?xml version="1.0" encoding="UTF-8"?>
<svg xmlns="http://www.w3.org/2000/svg" version="1.1" viewBox="0 0 473.5 126.7">
  <!-- Generator: Adobe Illustrator 29.6.0, SVG Export Plug-In . SVG Version: 2.1.1 Build 207)  -->
  <defs>
    <style>
      .st0, .st1, .st2, .st3 {
        display: none;
      }

      .st0, .st4, .st5, .st6, .st7, .st8 {
        fill-rule: evenodd;
      }

      .st0, .st4, .st9 {
        fill: #fff;
      }

      .st1 {
        font-family: RoundedMplus1c-Bold, 'Rounded Mplus 1c Bold';
        font-weight: 700;
      }

      .st1, .st2 {
        font-size: 28.3px;
      }

      .st5 {
        fill: #19324a;
      }

      .st6 {
        fill: #282829;
      }

      .st10 {
        letter-spacing: 0em;
      }

      .st11 {
        letter-spacing: 0em;
      }

      .st2 {
        font-family: Winston-SemiBold, Winston;
        font-weight: 600;
      }

      .st12 {
        letter-spacing: 0em;
      }

      .st7 {
        fill: #f16622;
      }

      .st8 {
        fill: #f68332;
      }

      .st13 {
        letter-spacing: 0em;
      }

      .st14 {
        letter-spacing: 0em;
      }

      .st15 {
        letter-spacing: 0em;
      }

      .st16 {
        letter-spacing: 0em;
      }

      .st17 {
        letter-spacing: 0em;
      }

      .st18 {
        letter-spacing: 0em;
      }

      .st19 {
        letter-spacing: 0em;
      }

      .st20 {
        letter-spacing: 0em;
      }

      .st21 {
        letter-spacing: 0em;
      }
    </style>
  </defs>
  <g id="Layer_3">
    <path class="st9" d="M209,19.9c11.7-7.9,49.7-6.9,54.9-.2,2.1,2.7-1.6,14.8-1.6,14.8,0,0-5.1.7-6.2,2.2-1.6,2.2-1.6,10.1-1.6,10.1l2.2,2.4-6.9,4.9-1.6,10.5-4.1,3.3-.3,15-4.5,4.5h-4.7s-3.6-3.4-4-4.5c-1.3-3.6-.8-15.1-.8-15.1l-3.8-3.6-2.1-10.3-6.1-4.6,2.6-4.7s-1.7-6.1-3.7-7.8-5.5-3.3-5.5-3.3c0,0-5.2-11.7-2.2-13.7Z"/>
  </g>
  <g id="logo">
    <g id="logo-black" class="st3">
      <path class="st6" d="M224.8,15.7c-4.9.9-9.9,1.8-14.4,3.9.7,1.4,1.6,2.7,1.9,4.2.5,2,.1,4.2-.7,6-.4,1.3-.7,3.4.9,4.1,1.7.9,3.7,1.2,5.4,2.1,1.1,1.8.9,4.2,2.5,5.8,2.5,2.4,5.5,4.3,8.1,6.7-1.4.5-2.8,1.3-4.3,1.3-1.6-.7-2.9-2-4.6-2.6-.5.7-.9,1.4-1.4,2.1,1.9,1.6,4,2.8,5.9,4.3,1,3.2,1.2,6.6,2,9.9.5,2,3.4,2.4,3.8,4.5.5,4.9.1,9.9.9,14.9.9,1.6,2.1,3.1,3.5,4.3,1.6.2,3.2.2,4.8,0,1.5-1.3,2.9-2.7,3.9-4.4.6-4.9.3-9.8.5-14.7.6-2.2,3.4-2.7,3.9-4.9.7-3,.9-6.2,1.7-9.2,1.7-1.8,4.1-2.8,5.9-4.5,0-.8-.7-1.5-.9-2.2-1.4.4-2.6,1.4-3.8,2.1-1.7,1.2-3.6-.2-5.2-.9,2.6-2.2,5.3-4.2,7.9-6.4,1.7-1.5,1.6-3.9,2.6-5.8,2-1.4,4.8-1.4,6.5-3.1.6-1.9-.2-3.7-.8-5.4-.9-2.9.6-5.6,1.9-8.1-1.1-.5-2.1-1.1-3.3-1.4-11.3-3.7-23.5-4.5-35.2-2.5M137.2,13.4c3.4-2.2,7.4-2.7,11.3-3.3,1.6-.2,3.4-.5,4.9.3,6.3,2.9,12.7,5.6,19,8.4,2.6,1,5,2.6,7.8,2.7,3.6.5,7.4.5,11,0,6.4-.4,12.8-1.8,18.9-3.8,16.4-5.4,34.6-6.5,51.1-1,10.7,4.1,22.3,6.1,33.7,4.8,1.9-.3,3.7-1.3,5.4-2.1,5.4-2.2,10.6-4.8,16-6.9,1.8-.8,3.6-1.8,5.5-2.4,2.3-.4,4.7.3,6.9.6,2.7.5,5.6,1,7.8,2.8-2.9.4-5.9-.1-8.9.2-2.5.4-5.2.3-7.4,1.8-7.2,4.5-14.5,8.8-21.7,13.3-1.1.7-2.2,1.5-3.5,1.8-2.1.4-4.3,0-6.5.3-2.3.4-4.7.1-7,.4-3,.4-6,.1-9,.6-2.9,0-5.8.2-8.7.5,0,1.2-.3,2.3-.5,3.5-1.6.7-3.4,1-5,1.8-1.4,2.2-2.2,4.7-2.6,7.3.5,1.7,2.1,3,2.7,4.7-.1.5-.7.7-1,1-1.9,1.4-4,2.6-5.7,4.2-.5.4-.8.9-.9,1.6-.6,2.8-.7,5.7-1.5,8.4-.6,2.2-3.6,2.6-3.9,4.9-.3,1.7,0,3.6-.3,5.3-.6,3,.1,6.2-.9,9-1.2,1.5-2.5,2.8-3.9,4.1-.8,1-2.1.5-3.2.6-1.2-.1-2.7.4-3.6-.7-1.2-1.2-2.3-2.5-3.4-3.8-.4-.5-.6-1.2-.7-1.8-.3-4.3-.5-8.5-.8-12.8,0-2.5-3.7-2.7-4-5.1-.5-2.9-.9-5.8-1.5-8.7-.1-.8-.8-1.3-1.3-1.7-2.1-1.5-4.3-3-6.4-4.6.9-1.4,1.8-2.8,2.7-4.3.5-.8,0-1.6-.3-2.4-.7-1.6-1-3.3-1.7-4.9-1.5-1.2-3.5-1.3-5.2-2.1-.5-1.1-.5-2.4-.7-3.6-3,0-5.9-.5-8.9-.4-2.7,0-5.3-.5-8-.4-2.3.1-4.5-.3-6.7-.4-2.4,0-4.8-.2-7.1-.4-1.5-.2-2.7-1.1-4-1.8-7.4-4.5-14.8-9.1-22.3-13.5-3.3-1.6-7.2-1.7-10.8-1.7-1.8,0-3.6.7-5.2-.2Z"/>
      <path class="st7" d="M161,23.5c1.3-.6,2.4.9,3.3,1.6-1.4,1.7-3,3.2-4.2,5.1-2.9,4.4-4.8,9.6-4.4,14.9.4,4.5,2.2,8.8,4.9,12.4,3.5,5,8.4,8.7,13.4,12,13.5,8.1,29,12.2,44.5,14.1,2.8.3,5.7.4,8.5.8.8.6,1.3,1.5,1.9,2.3-1.9,0-3.9,0-5.8-.3-17-1.4-33.9-5.3-49-13.3-6.6-3.6-12.9-8.2-17.5-14.3-3.3-4.4-5.5-9.7-5.5-15.3.2-7.7,4.2-15,9.9-20"/>
      <path class="st7" d="M160.5,43.5c0-6.3,3-12.2,7.4-16.6,3.4,2,6.6,4.4,10.3,5.9,4.4.4,8.8.3,13.2.8,2.7,0,5.4,0,8.1.3,2.8.3,5.7-.2,8.6.5.2.9.3,1.9.3,2.8,1.8.7,3.8,1.1,5.5,2,.8,1.5,1.6,3.2,1.7,4.9-.7,2.2-2.3,4-3.3,6,2.7,2.1,5.7,3.7,8.1,6.1.5.5.7,1.2.8,1.9.5,2.5.7,5,1.3,7.5.3,2.4,3.8,2.7,3.9,5.2.2,3.7.6,7.4.7,11.1-16.1-.9-32.3-4.7-46.7-12.3-5.8-3.4-11.6-7.5-15.5-13.1-2.6-3.8-4.5-8.3-4.3-13"/>
      <path class="st7" d="M296.2,32.9c3.4-1.8,6.6-4,10-6,4,4.3,7.1,9.8,7.4,15.8.3,5-1.8,9.9-4.5,14-4.7,6.3-11.3,10.9-18.3,14.4-12.1,5.9-25.5,9.1-38.8,10.5-1.7.2-3.4.3-5.1.3.5-4,.5-7.9.9-11.9.9-1.5,2.9-2.1,3.7-3.7.9-2.9,1-6,1.6-8.9.1-1,1-1.5,1.7-2.1,2.3-1.7,4.7-3.2,7-5-1-2-2.2-3.9-3.4-5.9.5-1.7,1.1-3.3,1.7-5,1.8-.6,3.6-1.2,5.4-1.8.3-1.1.6-2.3.9-3.4,7.2.1,14.4-.8,21.6-.9,2.8-.5,5.6,0,8.3-.4"/>
      <path class="st7" d="M142.6,30.5c3.6-.8,7.1-2.2,10.9-2.4-2.3,3.2-4.1,6.9-4.9,10.8-6,1.5-11.9,2.9-17.8,4.7-1.7.5-3.5-.2-5.2-.4-3.4-.8-6.9-1-10.2-2.3,8.7-4.3,17.8-7.6,27.1-10.3"/>
      <path class="st6" d="M230.7,44.8c.5.3,1,.4,1.5.8,1.3,3.1,1,6.6,1.2,9.9.4,2.5.1,5.1.6,7.5.2,2.6,0,5.3,0,7.9,0,.7.4,1.4.8,2,.6-.1,1.3-.4,1.9-.5.6.1,1.2.3,1.8.5.4-.6,1.2-1.1,1.1-2,0-3.2,0-6.3,0-9.5.7-5.4,0-11,1.8-16.2.5,0,1,0,1.5.1-2.1,3.2-2.6,7.1-2.5,10.9-.2,8.8.9,17.6,1.6,26.3-1.4,1.2-2.7,2.4-4.2,3.4-.4-.8-.7-1.6-1.1-2.5-.3.8-.7,1.6-1,2.4-1.4-.9-2.6-2-3.8-3,0-4.3.6-8.5.9-12.8,0-4.6.7-9.3.4-13.9-.2-1.9-.3-3.9-.6-5.8-.2-2-1.5-3.7-1.9-5.6"/>
      <g>
        <path class="st7" d="M233.7.1c4.6-.4,9.1.3,13.7.3,14.8.8,29.6,3.7,43.5,9.2,2.9,1.2,5.7,2.7,8.6,4.1,1,.6,2.3,1,3,2-1.3.3-2.6,1.8-3.9.9-7.5-4.4-15.8-7.5-24.2-9.7-16.9-4.3-34.6-5.4-52-3.9-14.9,1.4-29.7,4.9-43.2,11.5-1.5.7-2.8,1.9-4.5,2.4-1-.2-2-.7-3-1.2.2-.7,1-.9,1.4-1.3,7.3-4.2,15.4-7.1,23.5-9.4,8.6-2.2,17.3-3.8,26.1-4.4,3.6-.5,7.3-.2,11-.6"/>
        <path class="st7" d="M221.9,5.5c4.9-.6,9.8-.7,14.7-.7,7.7-.2,15.3.4,22.9,1.7,11.7,1.7,23.3,5.1,33.7,10.7.8.4,1.5,1.1,2.2,1.8-2.8.3-5.5.6-8.3.5-5.6-.4-11.2-.8-16.6-2.3-4-.9-7.7-2.6-11.6-3.6-12.4-3.4-25.5-3.5-38.1-1.1-6.6,1-12.7,3.7-19.2,5.1-4.4,1.2-9,1.6-13.6,1.9-3.1,0-6.3.2-9.3-.7.4-.4.8-.8,1.3-1.1,12.8-7.1,27.3-10.7,41.8-12.1"/>
        <path class="st7" d="M309.5,24.9c1.1-.6,2.1-1.2,3.1-1.9,4.6,4.3,8.4,9.8,9.7,16.1.6,2.4.4,4.9.3,7.3-.9,7.1-5.2,13.3-10.4,18-10.7,9.8-24.6,15-38.5,18.5-7.2,1.7-14.6,2.9-22,3.5-2.2.4-4.5.4-6.8.3.6-.8,1.2-1.9,2.2-2.3,2.4-.5,4.9-.4,7.3-.7,12-1.4,23.8-4.1,34.9-8.8,6.8-2.8,13.2-6.7,18.7-11.5,4.7-4.3,8.7-9.8,9.8-16.2,1-5.2-.3-10.7-2.9-15.2-1.5-2.6-3.5-4.9-5.5-7.1"/>
        <path class="st7" d="M320.7,28.1c9.6.9,19,2.9,28.4,5,13.2,3.2,26.4,6.7,39.3,11,11,3.5,22.3,6,33.9,6.5,15.9.9,32-1.5,47-6.9,1.4-.6,2.7-1.1,4.2-1.4-3,2.6-6.6,4.5-10.2,6-8.3,3.5-17.2,5.7-26.2,6.5-2.5.5-5.1.3-7.7.6-14.6.5-29.2-1.1-43.5-4.2-6.4-1.5-12.8-3.3-19.1-4.9-13.5-3.3-27.2-6.1-41.1-6.4-.9-4.3-2.7-8.3-5-11.9"/>
        <path class="st7" d="M377,32.2c12.3-2,24.9-2.3,37.2-.3,7.6,1.2,15.1,3.2,22,6.7-4.3-1-8.6-2.3-13-3-5.4-1.2-10.9-1.4-16.4-1.9-11-.4-22.1.6-32.6,3.9-.9.2-1.8.6-2.7.3-2.7-.7-5.5-1.4-8.1-2.4,1.6-1,3.6-1.4,5.4-1.9,2.7-.7,5.4-1.1,8.2-1.4"/>
        <path class="st7" d="M11.4,37.3c14.3-5.7,29.9-7.1,45.1-6.5,13.5.8,26.9,2.9,39.9,6.4,16.9,4.5,34.1,8.8,51.6,9,.8,4.2,2.4,8.2,4.6,11.8-4.9,0-9.7-1.2-14.6-2-17-3.2-33.7-7.7-50.1-12.8-12-4.3-24.6-7-37.4-7.7-15-.8-30.1,1.3-44.3,6.2-2.1.6-4.1,1.6-6.3,2.1,3.2-3.1,7.4-4.9,11.4-6.6"/>
        <path class="st7" d="M326.1,47.1c5.4-1.2,10.7-2.6,16-4.2,2.2-.7,4.5.2,6.7.5,3.1.7,6.3,1.1,9.3,2.2-11.7,5.5-24,9.9-36.6,12.6,1.2-2.8,2.8-5.4,3.7-8.4.3-.9.4-1.9,1-2.7"/>
        <path class="st7" d="M37.8,47.8c1.9.3,3.7.8,5.5,1.3,12.4,3.2,25.3,4,38,3,5.9-.5,11.8-1.6,17.5-3.5.8-.2,1.6-.5,2.4-.4,3,.5,5.7,1.7,8.7,2.3,0,.2-.1.5-.1.6-6.6,2.3-13.7,3-20.6,3.9-6,.7-12.1.6-18.2.5-2.9-.3-5.8-.3-8.7-.8-8.4-1.2-16.9-2.9-24.4-7"/>
      </g>
    </g>
    <path class="st5" d="M230.7,44.8c.5.3,1,.4,1.5.8,1.3,3.1,1,6.6,1.2,9.9.4,2.5.1,5.1.6,7.5.2,2.6,0,5.3,0,7.9,0,.7.4,1.4.8,2,.6-.1,1.3-.4,1.9-.5.6.1,1.2.3,1.8.5.4-.6,1.2-1.1,1.1-2,0-3.2,0-6.3,0-9.5.7-5.4,0-11,1.8-16.2.5,0,1,0,1.5.1-2.1,3.2-2.6,7.1-2.5,10.9-.2,8.8.9,17.6,1.6,26.3-1.4,1.2-2.7,2.4-4.2,3.4-.4-.8-.7-1.6-1.1-2.5-.3.8-.7,1.6-1,2.4-1.4-.9-2.6-2-3.8-3,0-4.3.6-8.5.9-12.8,0-4.6.7-9.3.4-13.9-.2-1.9-.3-3.9-.6-5.8-.2-2-1.5-3.7-1.9-5.6"/>
    <path class="st5" d="M224.8,15.7c-4.9.9-9.9,1.8-14.4,3.9.7,1.4,1.6,2.7,1.9,4.2.5,2,.1,4.2-.7,6-.4,1.3-.7,3.4.9,4.1,1.7.9,3.7,1.2,5.4,2.1,1.1,1.8.9,4.2,2.5,5.8,2.5,2.4,5.5,4.3,8.1,6.7-1.4.5-2.8,1.3-4.3,1.3-1.6-.7-2.9-2-4.6-2.6-.5.7-.9,1.4-1.4,2.1,1.9,1.6,4,2.8,5.9,4.3,1,3.2,1.2,6.6,2,9.9.5,2,3.4,2.4,3.8,4.5.5,4.9.1,9.9.9,14.9.9,1.6,2.1,3.1,3.5,4.3,1.6.2,3.2.2,4.8,0,1.5-1.3,2.9-2.7,3.9-4.4.6-4.9.3-9.8.5-14.7.6-2.2,3.4-2.7,3.9-4.9.7-3,.9-6.2,1.7-9.2,1.7-1.8,4.1-2.8,5.9-4.5,0-.8-.7-1.5-.9-2.2-1.4.4-2.6,1.4-3.8,2.1-1.7,1.2-3.6-.2-5.2-.9,2.6-2.2,5.3-4.2,7.9-6.4,1.7-1.5,1.6-3.9,2.6-5.8,2-1.4,4.8-1.4,6.5-3.1.6-1.9-.2-3.7-.8-5.4-.9-2.9.6-5.6,1.9-8.1-1.1-.5-2.1-1.1-3.3-1.4-11.3-3.7-23.5-4.5-35.2-2.5M137.2,13.4c3.4-2.2,7.4-2.7,11.3-3.3,1.6-.2,3.4-.5,4.9.3,6.3,2.9,12.7,5.6,19,8.4,2.6,1,5,2.6,7.8,2.7,3.6.5,7.4.5,11,0,6.4-.4,12.8-1.8,18.9-3.8,16.4-5.4,34.6-6.5,51.1-1,10.7,4.1,22.3,6.1,33.7,4.8,1.9-.3,3.7-1.3,5.4-2.1,5.4-2.2,10.6-4.8,16-6.9,1.8-.8,3.6-1.8,5.5-2.4,2.3-.4,4.7.3,6.9.6,2.7.5,5.6,1,7.8,2.8-2.9.4-5.9-.1-8.9.2-2.5.4-5.2.3-7.4,1.8-7.2,4.5-14.5,8.8-21.7,13.3-1.1.7-2.2,1.5-3.5,1.8-2.1.4-4.3,0-6.5.3-2.3.4-4.7.1-7,.4-3,.4-6,.1-9,.6-2.9,0-5.8.2-8.7.5,0,1.2-.3,2.3-.5,3.5-1.6.7-3.4,1-5,1.8-1.4,2.2-2.2,4.7-2.6,7.3.5,1.7,2.1,3,2.7,4.7-.1.5-.7.7-1,1-1.9,1.4-4,2.6-5.7,4.2-.5.4-.8.9-.9,1.6-.6,2.8-.7,5.7-1.5,8.4-.6,2.2-3.6,2.6-3.9,4.9-.3,1.7,0,3.6-.3,5.3-.6,3,.1,6.2-.9,9-1.2,1.5-2.5,2.8-3.9,4.1-.8,1-2.1.5-3.2.6-1.2-.1-2.7.4-3.6-.7-1.2-1.2-2.3-2.5-3.4-3.8-.4-.5-.6-1.2-.7-1.8-.3-4.3-.5-8.5-.8-12.8,0-2.5-3.7-2.7-4-5.1-.5-2.9-.9-5.8-1.5-8.7-.1-.8-.8-1.3-1.3-1.7-2.1-1.5-4.3-3-6.4-4.6.9-1.4,1.8-2.8,2.7-4.3.5-.8,0-1.6-.3-2.4-.7-1.6-1-3.3-1.7-4.9-1.5-1.2-3.5-1.3-5.2-2.1-.5-1.1-.5-2.4-.7-3.6-3,0-5.9-.5-8.9-.4-2.7,0-5.3-.5-8-.4-2.3.1-4.5-.3-6.7-.4-2.4,0-4.8-.2-7.1-.4-1.5-.2-2.7-1.1-4-1.8-7.4-4.5-14.8-9.1-22.3-13.5-3.3-1.6-7.2-1.7-10.8-1.7-1.8,0-3.6.7-5.2-.2Z"/>
    <path class="st8" d="M161,23.5c1.3-.6,2.4.9,3.3,1.6-1.4,1.7-3,3.2-4.2,5.1-2.9,4.4-4.8,9.6-4.4,14.9.4,4.5,2.2,8.8,4.9,12.4,3.5,5,8.4,8.7,13.4,12,13.5,8.1,29,12.2,44.5,14.1,2.8.3,5.7.4,8.5.8.8.6,1.3,1.5,1.9,2.3-1.9,0-3.9,0-5.8-.3-17-1.4-33.9-5.3-49-13.3-6.6-3.6-12.9-8.2-17.5-14.3-3.3-4.4-5.5-9.7-5.5-15.3.2-7.7,4.2-15,9.9-20"/>
    <path class="st8" d="M160.5,43.5c0-6.3,3-12.2,7.4-16.6,3.4,2,6.6,4.4,10.3,5.9,4.4.4,8.8.3,13.2.8,2.7,0,5.4,0,8.1.3,2.8.3,5.7-.2,8.6.5.2.9.3,1.9.3,2.8,1.8.7,3.8,1.1,5.5,2,.8,1.5,1.6,3.2,1.7,4.9-.7,2.2-2.3,4-3.3,6,2.7,2.1,5.7,3.7,8.1,6.1.5.5.7,1.2.8,1.9.5,2.5.7,5,1.3,7.5.3,2.4,3.8,2.7,3.9,5.2.2,3.7.6,7.4.7,11.1-16.1-.9-32.3-4.7-46.7-12.3-5.8-3.4-11.6-7.5-15.5-13.1-2.6-3.8-4.5-8.3-4.3-13"/>
    <path class="st8" d="M296.2,32.9c3.4-1.8,6.6-4,10-6,4,4.3,7.1,9.8,7.4,15.8.3,5-1.8,9.9-4.5,14-4.7,6.3-11.3,10.9-18.3,14.4-12.1,5.9-25.5,9.1-38.8,10.5-1.7.2-3.4.3-5.1.3.5-4,.5-7.9.9-11.9.9-1.5,2.9-2.1,3.7-3.7.9-2.9,1-6,1.6-8.9.1-1,1-1.5,1.7-2.1,2.3-1.7,4.7-3.2,7-5-1-2-2.2-3.9-3.4-5.9.5-1.7,1.1-3.3,1.7-5,1.8-.6,3.6-1.2,5.4-1.8.3-1.1.6-2.3.9-3.4,7.2.1,14.4-.8,21.6-.9,2.8-.5,5.6,0,8.3-.4"/>
    <path class="st8" d="M142.6,30.5c3.6-.8,7.1-2.2,10.9-2.4-2.3,3.2-4.1,6.9-4.9,10.8-6,1.5-11.9,2.9-17.8,4.7-1.7.5-3.5-.2-5.2-.4-3.4-.8-6.9-1-10.2-2.3,8.7-4.3,17.8-7.6,27.1-10.3"/>
    <g>
      <path class="st8" d="M233.7.1c4.6-.4,9.1.3,13.7.3,14.8.8,29.6,3.7,43.5,9.2,2.9,1.2,5.7,2.7,8.6,4.1,1,.6,2.3,1,3,2-1.3.3-2.6,1.8-3.9.9-7.5-4.4-15.8-7.5-24.2-9.7-16.9-4.3-34.6-5.4-52-3.9-14.9,1.4-29.7,4.9-43.2,11.5-1.5.7-2.8,1.9-4.5,2.4-1-.2-2-.7-3-1.2.2-.7,1-.9,1.4-1.3,7.3-4.2,15.4-7.1,23.5-9.4,8.6-2.2,17.3-3.8,26.1-4.4,3.6-.5,7.3-.2,11-.6"/>
      <path class="st8" d="M221.9,5.5c4.9-.6,9.8-.7,14.7-.7,7.7-.2,15.3.4,22.9,1.7,11.7,1.7,23.3,5.1,33.7,10.7.8.4,1.5,1.1,2.2,1.8-2.8.3-5.5.6-8.3.5-5.6-.4-11.2-.8-16.6-2.3-4-.9-7.7-2.6-11.6-3.6-12.4-3.4-25.5-3.5-38.1-1.1-6.6,1-12.7,3.7-19.2,5.1-4.4,1.2-9,1.6-13.6,1.9-3.1,0-6.3.2-9.3-.7.4-.4.8-.8,1.3-1.1,12.8-7.1,27.3-10.7,41.8-12.1"/>
      <path class="st8" d="M309.5,24.9c1.1-.6,2.1-1.2,3.1-1.9,4.6,4.3,8.4,9.8,9.7,16.1.6,2.4.4,4.9.3,7.3-.9,7.1-5.2,13.3-10.4,18-10.7,9.8-24.6,15-38.5,18.5-7.2,1.7-14.6,2.9-22,3.5-2.2.4-4.5.4-6.8.3.6-.8,1.2-1.9,2.2-2.3,2.4-.5,4.9-.4,7.3-.7,12-1.4,23.8-4.1,34.9-8.8,6.8-2.8,13.2-6.7,18.7-11.5,4.7-4.3,8.7-9.8,9.8-16.2,1-5.2-.3-10.7-2.9-15.2-1.5-2.6-3.5-4.9-5.5-7.1"/>
      <path class="st8" d="M320.7,28.1c9.6.9,19,2.9,28.4,5,13.2,3.2,26.4,6.7,39.3,11,11,3.5,22.3,6,33.9,6.5,15.9.9,32-1.5,47-6.9,1.4-.6,2.7-1.1,4.2-1.4-3,2.6-6.6,4.5-10.2,6-8.3,3.5-17.2,5.7-26.2,6.5-2.5.5-5.1.3-7.7.6-14.6.5-29.2-1.1-43.5-4.2-6.4-1.5-12.8-3.3-19.1-4.9-13.5-3.3-27.2-6.1-41.1-6.4-.9-4.3-2.7-8.3-5-11.9"/>
      <path class="st8" d="M377,32.2c12.3-2,24.9-2.3,37.2-.3,7.6,1.2,15.1,3.2,22,6.7-4.3-1-8.6-2.3-13-3-5.4-1.2-10.9-1.4-16.4-1.9-11-.4-22.1.6-32.6,3.9-.9.2-1.8.6-2.7.3-2.7-.7-5.5-1.4-8.1-2.4,1.6-1,3.6-1.4,5.4-1.9,2.7-.7,5.4-1.1,8.2-1.4"/>
      <path class="st8" d="M11.4,37.3c14.3-5.7,29.9-7.1,45.1-6.5,13.5.8,26.9,2.9,39.9,6.4,16.9,4.5,34.1,8.8,51.6,9,.8,4.2,2.4,8.2,4.6,11.8-4.9,0-9.7-1.2-14.6-2-17-3.2-33.7-7.7-50.1-12.8-12-4.3-24.6-7-37.4-7.7-15-.8-30.1,1.3-44.3,6.2-2.1.6-4.1,1.6-6.3,2.1,3.2-3.1,7.4-4.9,11.4-6.6"/>
      <path class="st8" d="M326.1,47.1c5.4-1.2,10.7-2.6,16-4.2,2.2-.7,4.5.2,6.7.5,3.1.7,6.3,1.1,9.3,2.2-11.7,5.5-24,9.9-36.6,12.6,1.2-2.8,2.8-5.4,3.7-8.4.3-.9.4-1.9,1-2.7"/>
      <path class="st8" d="M37.8,47.8c1.9.3,3.7.8,5.5,1.3,12.4,3.2,25.3,4,38,3,5.9-.5,11.8-1.6,17.5-3.5.8-.2,1.6-.5,2.4-.4,3,.5,5.7,1.7,8.7,2.3,0,.2-.1.5-.1.6-6.6,2.3-13.7,3-20.6,3.9-6,.7-12.1.6-18.2.5-2.9-.3-5.8-.3-8.7-.8-8.4-1.2-16.9-2.9-24.4-7"/>
    </g>
    <g id="logo-white" class="st3">
      <path class="st4" d="M224.8,15.7c-4.9.9-9.9,1.8-14.4,3.9.7,1.4,1.6,2.7,1.9,4.2.5,2,.1,4.2-.7,6-.4,1.3-.7,3.4.9,4.1,1.7.9,3.7,1.2,5.4,2.1,1.1,1.8.9,4.2,2.5,5.8,2.5,2.4,5.5,4.3,8.1,6.7-1.4.5-2.8,1.3-4.3,1.3-1.6-.7-2.9-2-4.6-2.6-.5.7-.9,1.4-1.4,2.1,1.9,1.6,4,2.8,5.9,4.3,1,3.2,1.2,6.6,2,9.9.5,2,3.4,2.4,3.8,4.5.5,4.9.1,9.9.9,14.9.9,1.6,2.1,3.1,3.5,4.3,1.6.2,3.2.2,4.8,0,1.5-1.3,2.9-2.7,3.9-4.4.6-4.9.3-9.8.5-14.7.6-2.2,3.4-2.7,3.9-4.9.7-3,.9-6.2,1.7-9.2,1.7-1.8,4.1-2.8,5.9-4.5,0-.8-.7-1.5-.9-2.2-1.4.4-2.6,1.4-3.8,2.1-1.7,1.2-3.6-.2-5.2-.9,2.6-2.2,5.3-4.2,7.9-6.4,1.7-1.5,1.6-3.9,2.6-5.8,2-1.4,4.8-1.4,6.5-3.1.6-1.9-.2-3.7-.8-5.4-.9-2.9.6-5.6,1.9-8.1-1.1-.5-2.1-1.1-3.3-1.4-11.3-3.7-23.5-4.5-35.2-2.5M137.2,13.4c3.4-2.2,7.4-2.7,11.3-3.3,1.6-.2,3.4-.5,4.9.3,6.3,2.9,12.7,5.6,19,8.4,2.6,1,5,2.6,7.8,2.7,3.6.5,7.4.5,11,0,6.4-.4,12.8-1.8,18.9-3.8,16.4-5.4,34.6-6.5,51.1-1,10.7,4.1,22.3,6.1,33.7,4.8,1.9-.3,3.7-1.3,5.4-2.1,5.4-2.2,10.6-4.8,16-6.9,1.8-.8,3.6-1.8,5.5-2.4,2.3-.4,4.7.3,6.9.6,2.7.5,5.6,1,7.8,2.8-2.9.4-5.9-.1-8.9.2-2.5.4-5.2.3-7.4,1.8-7.2,4.5-14.5,8.8-21.7,13.3-1.1.7-2.2,1.5-3.5,1.8-2.1.4-4.3,0-6.5.3-2.3.4-4.7.1-7,.4-3,.4-6,.1-9,.6-2.9,0-5.8.2-8.7.5,0,1.2-.3,2.3-.5,3.5-1.6.7-3.4,1-5,1.8-1.4,2.2-2.2,4.7-2.6,7.3.5,1.7,2.1,3,2.7,4.7-.1.5-.7.7-1,1-1.9,1.4-4,2.6-5.7,4.2-.5.4-.8.9-.9,1.6-.6,2.8-.7,5.7-1.5,8.4-.6,2.2-3.6,2.6-3.9,4.9-.3,1.7,0,3.6-.3,5.3-.6,3,.1,6.2-.9,9-1.2,1.5-2.5,2.8-3.9,4.1-.8,1-2.1.5-3.2.6-1.2-.1-2.7.4-3.6-.7-1.2-1.2-2.3-2.5-3.4-3.8-.4-.5-.6-1.2-.7-1.8-.3-4.3-.5-8.5-.8-12.8,0-2.5-3.7-2.7-4-5.1-.5-2.9-.9-5.8-1.5-8.7-.1-.8-.8-1.3-1.3-1.7-2.1-1.5-4.3-3-6.4-4.6.9-1.4,1.8-2.8,2.7-4.3.5-.8,0-1.6-.3-2.4-.7-1.6-1-3.3-1.7-4.9-1.5-1.2-3.5-1.3-5.2-2.1-.5-1.1-.5-2.4-.7-3.6-3,0-5.9-.5-8.9-.4-2.7,0-5.3-.5-8-.4-2.3.1-4.5-.3-6.7-.4-2.4,0-4.8-.2-7.1-.4-1.5-.2-2.7-1.1-4-1.8-7.4-4.5-14.8-9.1-22.3-13.5-3.3-1.6-7.2-1.7-10.8-1.7-1.8,0-3.6.7-5.2-.2Z"/>
      <path class="st4" d="M230.7,44.8c.5.3,1,.4,1.5.8,1.3,3.1,1,6.6,1.2,9.9.4,2.5.1,5.1.6,7.5.2,2.6,0,5.3,0,7.9,0,.7.4,1.4.8,2,.6-.1,1.3-.4,1.9-.5.6.1,1.2.3,1.8.5.4-.6,1.2-1.1,1.1-2,0-3.2,0-6.3,0-9.5.7-5.4,0-11,1.8-16.2.5,0,1,0,1.5.1-2.1,3.2-2.6,7.1-2.5,10.9-.2,8.8.9,17.6,1.6,26.3-1.4,1.2-2.7,2.4-4.2,3.4-.4-.8-.7-1.6-1.1-2.5-.3.8-.7,1.6-1,2.4-1.4-.9-2.6-2-3.8-3,0-4.3.6-8.5.9-12.8,0-4.6.7-9.3.4-13.9-.2-1.9-.3-3.9-.6-5.8-.2-2-1.5-3.7-1.9-5.6"/>
      <path class="st0" d="M161,23.5c1.3-.6,2.4.9,3.3,1.6-1.4,1.7-3,3.2-4.2,5.1-2.9,4.4-4.8,9.6-4.4,14.9.4,4.5,2.2,8.8,4.9,12.4,3.5,5,8.4,8.7,13.4,12,13.5,8.1,29,12.2,44.5,14.1,2.8.3,5.7.4,8.5.8.8.6,1.3,1.5,1.9,2.3-1.9,0-3.9,0-5.8-.3-17-1.4-33.9-5.3-49-13.3-6.6-3.6-12.9-8.2-17.5-14.3-3.3-4.4-5.5-9.7-5.5-15.3.2-7.7,4.2-15,9.9-20"/>
      <path class="st0" d="M160.5,43.5c0-6.3,3-12.2,7.4-16.6,3.4,2,6.6,4.4,10.3,5.9,4.4.4,8.8.3,13.2.8,2.7,0,5.4,0,8.1.3,2.8.3,5.7-.2,8.6.5.2.9.3,1.9.3,2.8,1.8.7,3.8,1.1,5.5,2,.8,1.5,1.6,3.2,1.7,4.9-.7,2.2-2.3,4-3.3,6,2.7,2.1,5.7,3.7,8.1,6.1.5.5.7,1.2.8,1.9.5,2.5.7,5,1.3,7.5.3,2.4,3.8,2.7,3.9,5.2.2,3.7.6,7.4.7,11.1-16.1-.9-32.3-4.7-46.7-12.3-5.8-3.4-11.6-7.5-15.5-13.1-2.6-3.8-4.5-8.3-4.3-13"/>
      <path class="st0" d="M296.2,32.9c3.4-1.8,6.6-4,10-6,4,4.3,7.1,9.8,7.4,15.8.3,5-1.8,9.9-4.5,14-4.7,6.3-11.3,10.9-18.3,14.4-12.1,5.9-25.5,9.1-38.8,10.5-1.7.2-3.4.3-5.1.3.5-4,.5-7.9.9-11.9.9-1.5,2.9-2.1,3.7-3.7.9-2.9,1-6,1.6-8.9.1-1,1-1.5,1.7-2.1,2.3-1.7,4.7-3.2,7-5-1-2-2.2-3.9-3.4-5.9.5-1.7,1.1-3.3,1.7-5,1.8-.6,3.6-1.2,5.4-1.8.3-1.1.6-2.3.9-3.4,7.2.1,14.4-.8,21.6-.9,2.8-.5,5.6,0,8.3-.4"/>
      <path class="st0" d="M142.6,30.5c3.6-.8,7.1-2.2,10.9-2.4-2.3,3.2-4.1,6.9-4.9,10.8-6,1.5-11.9,2.9-17.8,4.7-1.7.5-3.5-.2-5.2-.4-3.4-.8-6.9-1-10.2-2.3,8.7-4.3,17.8-7.6,27.1-10.3"/>
      <g class="st3">
        <path class="st4" d="M233.7.1c4.6-.4,9.1.3,13.7.3,14.8.8,29.6,3.7,43.5,9.2,2.9,1.2,5.7,2.7,8.6,4.1,1,.6,2.3,1,3,2-1.3.3-2.6,1.8-3.9.9-7.5-4.4-15.8-7.5-24.2-9.7-16.9-4.3-34.6-5.4-52-3.9-14.9,1.4-29.7,4.9-43.2,11.5-1.5.7-2.8,1.9-4.5,2.4-1-.2-2-.7-3-1.2.2-.7,1-.9,1.4-1.3,7.3-4.2,15.4-7.1,23.5-9.4,8.6-2.2,17.3-3.8,26.1-4.4,3.6-.5,7.3-.2,11-.6"/>
        <path class="st4" d="M221.9,5.5c4.9-.6,9.8-.7,14.7-.7,7.7-.2,15.3.4,22.9,1.7,11.7,1.7,23.3,5.1,33.7,10.7.8.4,1.5,1.1,2.2,1.8-2.8.3-5.5.6-8.3.5-5.6-.4-11.2-.8-16.6-2.3-4-.9-7.7-2.6-11.6-3.6-12.4-3.4-25.5-3.5-38.1-1.1-6.6,1-12.7,3.7-19.2,5.1-4.4,1.2-9,1.6-13.6,1.9-3.1,0-6.3.2-9.3-.7.4-.4.8-.8,1.3-1.1,12.8-7.1,27.3-10.7,41.8-12.1"/>
        <path class="st4" d="M309.5,24.9c1.1-.6,2.1-1.2,3.1-1.9,4.6,4.3,8.4,9.8,9.7,16.1.6,2.4.4,4.9.3,7.3-.9,7.1-5.2,13.3-10.4,18-10.7,9.8-24.6,15-38.5,18.5-7.2,1.7-14.6,2.9-22,3.5-2.2.4-4.5.4-6.8.3.6-.8,1.2-1.9,2.2-2.3,2.4-.5,4.9-.4,7.3-.7,12-1.4,23.8-4.1,34.9-8.8,6.8-2.8,13.2-6.7,18.7-11.5,4.7-4.3,8.7-9.8,9.8-16.2,1-5.2-.3-10.7-2.9-15.2-1.5-2.6-3.5-4.9-5.5-7.1"/>
        <path class="st4" d="M320.7,28.1c9.6.9,19,2.9,28.4,5,13.2,3.2,26.4,6.7,39.3,11,11,3.5,22.3,6,33.9,6.5,15.9.9,32-1.5,47-6.9,1.4-.6,2.7-1.1,4.2-1.4-3,2.6-6.6,4.5-10.2,6-8.3,3.5-17.2,5.7-26.2,6.5-2.5.5-5.1.3-7.7.6-14.6.5-29.2-1.1-43.5-4.2-6.4-1.5-12.8-3.3-19.1-4.9-13.5-3.3-27.2-6.1-41.1-6.4-.9-4.3-2.7-8.3-5-11.9"/>
        <path class="st4" d="M377,32.2c12.3-2,24.9-2.3,37.2-.3,7.6,1.2,15.1,3.2,22,6.7-4.3-1-8.6-2.3-13-3-5.4-1.2-10.9-1.4-16.4-1.9-11-.4-22.1.6-32.6,3.9-.9.2-1.8.6-2.7.3-2.7-.7-5.5-1.4-8.1-2.4,1.6-1,3.6-1.4,5.4-1.9,2.7-.7,5.4-1.1,8.2-1.4"/>
        <path class="st4" d="M11.4,37.3c14.3-5.7,29.9-7.1,45.1-6.5,13.5.8,26.9,2.9,39.9,6.4,16.9,4.5,34.1,8.8,51.6,9,.8,4.2,2.4,8.2,4.6,11.8-4.9,0-9.7-1.2-14.6-2-17-3.2-33.7-7.7-50.1-12.8-12-4.3-24.6-7-37.4-7.7-15-.8-30.1,1.3-44.3,6.2-2.1.6-4.1,1.6-6.3,2.1,3.2-3.1,7.4-4.9,11.4-6.6"/>
        <path class="st4" d="M326.1,47.1c5.4-1.2,10.7-2.6,16-4.2,2.2-.7,4.5.2,6.7.5,3.1.7,6.3,1.1,9.3,2.2-11.7,5.5-24,9.9-36.6,12.6,1.2-2.8,2.8-5.4,3.7-8.4.3-.9.4-1.9,1-2.7"/>
        <path class="st4" d="M37.8,47.8c1.9.3,3.7.8,5.5,1.3,12.4,3.2,25.3,4,38,3,5.9-.5,11.8-1.6,17.5-3.5.8-.2,1.6-.5,2.4-.4,3,.5,5.7,1.7,8.7,2.3,0,.2-.1.5-.1.6-6.6,2.3-13.7,3-20.6,3.9-6,.7-12.1.6-18.2.5-2.9-.3-5.8-.3-8.7-.8-8.4-1.2-16.9-2.9-24.4-7"/>
      </g>
    </g>
  </g>
  <g id="company_name">
    <text id="winston" class="st2" transform="translate(37.8 126.4)"><tspan x="0" y="0">T</tspan><tspan class="st18" x="17.5" y="0">E</tspan><tspan class="st14" x="34.3" y="0">X</tspan><tspan class="st20" x="52.9" y="0">A</tspan><tspan class="st10" x="73.9" y="0">S EMB</tspan><tspan class="st17" x="161" y="0">R</tspan><tspan x="180.8" y="0">OIDE</tspan><tspan class="st20" x="249.6" y="0">R</tspan><tspan class="st12" x="269.3" y="0">Y </tspan><tspan class="st15" x="294.9" y="0">R</tspan><tspan class="st11" x="314.4" y="0">ANCH</tspan></text>
    <text id="rounded" class="st1" transform="translate(47.8 126.4)"><tspan x="0" y="0">TE</tspan><tspan class="st21" x="35.4" y="0">X</tspan><tspan class="st13" x="53.6" y="0">A</tspan><tspan class="st10" x="71.6" y="0">S EMB</tspan><tspan class="st19" x="154.5" y="0">R</tspan><tspan class="st12" x="172.2" y="0">OIDE</tspan><tspan class="st16" x="239.3" y="0">R</tspan><tspan x="255.9" y="0">Y </tspan><tspan class="st21" x="281.8" y="0">R</tspan><tspan x="300.1" y="0">ANCH</tspan></text>
    <g id="winston-outline" class="st3">
      <path d="M44.7,126.4v-17h-6.6v-3h16.9v3h-6.6v17h-3.7Z"/>
      <path d="M57.5,126.4v-20h13.5v2.9h-10v5.5h9.3v2.9h-9.3v5.8h10v2.9h-13.5Z"/>
      <path d="M71.8,126.4l7.6-10.2-7.3-9.8h4.3l5.2,7.2,5.2-7.2h4.3l-7.4,9.8,7.7,10.2h-4.3l-5.4-7.5-5.4,7.5h-4.3Z"/>
      <path d="M90.6,126.4l9-20h3.1l9.2,20h-3.7l-2-4.6h-9.8l-2,4.6h-3.7ZM101.2,110.3l-3.6,8.6h7.5l-3.7-8.6h-.1Z"/>
      <path d="M120.8,126.7c-1.6,0-3.1-.2-4.4-.6-1.4-.4-2.5-1-3.5-1.7l1.1-2.9c1,.7,2,1.2,3.1,1.6,1.1.4,2.3.5,3.7.5s2.6-.2,3.2-.7c.7-.5,1-1.1,1-1.9s-.2-1.2-.7-1.6c-.5-.4-1.3-.7-2.4-.9l-3.2-.7c-1.8-.4-3.2-1-4.1-1.9-.9-.9-1.4-2.1-1.4-3.6s.3-2.3,1-3.3c.7-.9,1.6-1.6,2.8-2.2,1.2-.5,2.6-.8,4.2-.8s2.7.2,3.9.6c1.2.4,2.2,1,3,1.7l-1.1,2.7c-1.6-1.3-3.6-2-5.9-2s-2.4.3-3.1.8c-.7.5-1.1,1.2-1.1,2.1s.2,1.3.7,1.7c.5.4,1.3.7,2.4,1l3.2.6c1.9.4,3.3,1,4.2,1.9s1.4,2,1.4,3.5-.3,2.2-1,3.1c-.6.9-1.6,1.6-2.7,2.1-1.2.5-2.6.8-4.2.8Z"/>
      <path d="M139.9,126.4v-20h13.5v2.9h-10v5.5h9.3v2.9h-9.3v5.8h10v2.9h-13.5Z"/>
      <path d="M156.8,126.4v-20h3.2l6.9,15.5,6.9-15.5h3.2v20h-3.3v-12.6l-5.7,12.6h-2.2l-5.7-12.5v12.5h-3.3Z"/>
      <path d="M181.5,126.4v-20h8.8c2.2,0,3.8.5,5,1.4,1.2.9,1.8,2.2,1.8,3.8s-.3,2-.9,2.8c-.6.8-1.4,1.3-2.4,1.7,1.2.3,2.1.9,2.8,1.7.7.8,1,1.8,1,3,0,1.8-.6,3.2-1.8,4.1s-2.9,1.5-5.1,1.5h-9.1ZM185,114.9h4.6c2.6,0,3.9-1,3.9-2.9s-1.3-2.9-3.9-2.9h-4.6v5.7ZM185,123.6h5.2c1.2,0,2.2-.2,2.9-.7s1-1.2,1-2.3-.3-1.8-1-2.3-1.6-.7-2.9-.7h-5.2v6Z"/>
      <path d="M201,126.4v-20h8.7c2.2,0,3.9.5,5.1,1.6,1.2,1,1.8,2.5,1.8,4.3s-.4,2.6-1.1,3.5-1.7,1.6-3,2c1,.3,1.8,1.1,2.4,2.3l2.9,6.3h-4l-2.9-6.5c-.3-.7-.7-1.1-1.2-1.3-.5-.2-1.2-.3-1.9-.3h-3.1v8.1h-3.7ZM204.7,115.6h4.5c1.3,0,2.3-.3,2.9-.8.7-.5,1-1.3,1-2.4s-.3-1.8-1-2.4-1.6-.8-2.9-.8h-4.5v6.3Z"/>
      <path d="M229.7,126.7c-2,0-3.7-.4-5.1-1.3-1.4-.9-2.5-2-3.3-3.6-.8-1.5-1.2-3.3-1.2-5.4s.4-3.9,1.1-5.4c.8-1.5,1.9-2.7,3.3-3.6,1.4-.8,3.1-1.3,5.1-1.3s3.7.4,5.1,1.3c1.4.8,2.5,2,3.3,3.6.8,1.5,1.2,3.3,1.2,5.4s-.4,3.9-1.2,5.5c-.8,1.5-1.9,2.7-3.3,3.6-1.4.9-3.1,1.3-5.1,1.3ZM229.7,123.6c1.9,0,3.3-.6,4.3-1.9,1-1.3,1.5-3,1.5-5.3s-.5-4-1.5-5.3-2.4-1.9-4.3-1.9-3.3.6-4.3,1.9-1.4,3-1.4,5.3.5,4,1.4,5.3c1,1.3,2.4,1.9,4.3,1.9Z"/>
      <path d="M243.1,126.4v-20h3.7v20h-3.7Z"/>
      <path d="M251.1,126.4v-20h7.3c3.4,0,6.1.9,7.9,2.6,1.8,1.7,2.7,4.2,2.7,7.4s-.9,5.6-2.7,7.4-4.4,2.6-7.9,2.6h-7.3ZM254.8,123.4h3.4c4.8,0,7.1-2.3,7.1-7s-.6-4.1-1.8-5.3-3-1.7-5.4-1.7h-3.4v13.9Z"/>
      <path d="M272.7,126.4v-20h13.5v2.9h-10v5.5h9.3v2.9h-9.3v5.8h10v2.9h-13.5Z"/>
      <path d="M289.6,126.4v-20h8.7c2.2,0,3.9.5,5.1,1.6,1.2,1,1.8,2.5,1.8,4.3s-.4,2.6-1.1,3.5-1.7,1.6-3,2c1,.3,1.8,1.1,2.4,2.3l2.9,6.3h-4l-2.9-6.5c-.3-.7-.7-1.1-1.2-1.3-.5-.2-1.2-.3-1.9-.3h-3.1v8.1h-3.7ZM293.3,115.6h4.5c1.3,0,2.3-.3,2.9-.8.7-.5,1-1.3,1-2.4s-.3-1.8-1-2.4-1.6-.8-2.9-.8h-4.5v6.3Z"/>
      <path d="M314.2,126.4v-8.4l-7.8-11.6h4.2l5.5,8.4,5.5-8.4h4.1l-7.8,11.6v8.4h-3.7Z"/>
      <path d="M334.9,126.4v-20h8.7c2.2,0,3.9.5,5.1,1.6,1.2,1,1.8,2.5,1.8,4.3s-.4,2.6-1.1,3.5-1.7,1.6-3,2c1,.3,1.8,1.1,2.4,2.3l2.9,6.3h-4l-2.9-6.5c-.3-.7-.7-1.1-1.2-1.3-.5-.2-1.2-.3-1.9-.3h-3.1v8.1h-3.7ZM338.5,115.6h4.5c1.3,0,2.3-.3,2.9-.8.7-.5,1-1.3,1-2.4s-.3-1.8-1-2.4-1.6-.8-2.9-.8h-4.5v6.3Z"/>
      <path d="M352.2,126.4l9-20h3.1l9.2,20h-3.7l-2-4.6h-9.8l-2,4.6h-3.7ZM362.7,110.3l-3.6,8.6h7.5l-3.7-8.6h-.1Z"/>
      <path d="M375.7,126.4v-20h2.8l10.9,14v-14h3.4v20h-2.8l-10.9-14.1v14.1h-3.4Z"/>
      <path d="M406.4,126.7c-2.1,0-3.9-.4-5.3-1.3-1.5-.8-2.6-2-3.4-3.6-.8-1.5-1.2-3.4-1.2-5.5s.4-3.9,1.2-5.4c.8-1.5,1.9-2.7,3.4-3.6,1.5-.8,3.3-1.3,5.3-1.3s5,.8,6.7,2.4l-1.2,2.9c-.9-.7-1.7-1.2-2.6-1.5-.8-.3-1.8-.5-2.8-.5-2,0-3.6.6-4.6,1.8-1.1,1.2-1.6,3-1.6,5.2s.5,4,1.6,5.2c1.1,1.2,2.6,1.8,4.6,1.8s2-.2,2.8-.5c.8-.3,1.7-.8,2.6-1.6l1.2,2.9c-.8.8-1.8,1.3-2.9,1.8-1.1.4-2.4.6-3.8.6Z"/>
      <path d="M416.5,126.4v-20h3.7v8.3h10.2v-8.3h3.7v20h-3.7v-8.6h-10.2v8.6h-3.7Z"/>
    </g>
    <g id="rounded-outlilne" class="st3">
      <path d="M40.9,109c-.4,0-.8-.2-1.1-.5-.3-.3-.5-.7-.5-1.1h0c0-.5.2-.9.5-1.2.3-.3.7-.5,1.1-.5h12.1c.4,0,.8.2,1.1.5.3.3.5.7.5,1.1h0c0,.5-.2.9-.5,1.2-.3.3-.7.5-1.1.5h-3.8c-.2,0-.2,0-.2.3v15.5c0,.4-.2.8-.5,1.1-.3.3-.7.5-1.1.5h-.8c-.4,0-.8-.2-1.1-.5-.3-.3-.5-.7-.5-1.1v-15.5c0-.2,0-.3-.2-.3h-3.8Z"/>
      <path d="M60,126.4c-.4,0-.8-.2-1.1-.5-.3-.3-.5-.7-.5-1.1v-17.5c0-.4.2-.8.5-1.1s.7-.5,1.1-.5h9.6c.4,0,.8.2,1.1.5.3.3.5.7.5,1.1s-.2.8-.5,1.1c-.3.3-.7.5-1.1.5h-7c-.2,0-.3,0-.3.3v4.6c0,.2,0,.3.3.3h6.5c.4,0,.8.2,1.1.5.3.3.4.7.4,1.1s-.1.8-.4,1.1c-.3.3-.7.4-1.1.4h-6.5c-.2,0-.3,0-.3.3v5.7c0,.2,0,.3.3.3h7c.4,0,.8.2,1.1.5.3.3.5.7.5,1.1s-.2.8-.5,1.1c-.3.3-.7.5-1.1.5h-9.6Z"/>
      <path d="M75.8,126.4c-.4,0-.6-.2-.8-.5-.2-.3-.2-.6,0-1l4.7-8.8c0-.1,0-.3,0-.4l-4.6-8.6c-.2-.3-.2-.6,0-.9.2-.3.5-.5.8-.5h1.2c.5,0,.9.1,1.4.4.4.3.7.6.9,1l3,6.3s0,0,0,0,0,0,0,0l3-6.3c.2-.4.5-.8.9-1,.4-.3.9-.4,1.4-.4h1.1c.4,0,.7.2.8.5.2.3.2.6,0,.9l-4.6,8.6c0,.1,0,.3,0,.4l4.7,8.8c.2.3.2.6,0,1-.2.3-.5.5-.8.5h-1.3c-.5,0-.9-.1-1.4-.4-.4-.3-.7-.6-.9-1l-3-6.5s0,0,0,0,0,0,0,0l-3,6.5c-.2.4-.5.8-.9,1-.4.3-.9.4-1.4.4h-1.2Z"/>
      <path d="M93.4,126.4c-.4,0-.7-.2-.9-.5-.2-.3-.3-.7-.1-1l5.9-17.6c.2-.5.4-.8.8-1.1.4-.3.8-.4,1.3-.4h1c.5,0,.9.1,1.3.4.4.3.7.7.8,1.1l5.9,17.6c.1.4,0,.7-.1,1-.2.3-.5.5-.9.5h-1c-.5,0-.9-.1-1.3-.4-.4-.3-.6-.7-.8-1.1l-.9-3.2c0-.2-.1-.2-.3-.2h-6.4c-.2,0-.3,0-.3.2l-.9,3.2c-.1.5-.4.8-.8,1.1-.4.3-.8.4-1.3.4h-.9ZM100.7,109.2l-2.5,8.9c0,0,0,.1,0,.2,0,0,0,0,.1,0h4.7c0,0,.1,0,.1,0s0-.1,0-.2l-2.5-8.9s0,0,0,0,0,0,0,0Z"/>
      <path d="M117.3,117.7c-2.3-.8-3.9-1.7-4.9-2.8-1-1.1-1.5-2.4-1.5-3.9s.6-3.1,1.7-4.1c1.2-1,2.8-1.5,4.8-1.5s3.3.2,4.6.6c.5.1.8.4,1.1.8.3.4.4.9.4,1.3v.3c0,.4-.2.6-.5.8-.3.2-.7.2-1,0-1.4-.5-2.9-.8-4.3-.8s-1.7.2-2.2.7c-.5.4-.7,1-.7,1.8,0,1.4.9,2.3,2.7,2.9,2.6.8,4.3,1.7,5.3,2.8s1.5,2.4,1.5,4c0,4-2.4,6-7.3,6s-2.9-.2-4.2-.7c-.5-.2-.8-.5-1.1-.9-.3-.4-.4-.9-.4-1.4v-.3c0-.4.2-.6.5-.8.3-.2.6-.2.9,0,1.2.6,2.6.9,3.9.9,2.4,0,3.6-.9,3.6-2.7s-.2-1.3-.7-1.8c-.5-.5-1.2-.9-2.3-1.3Z"/>
      <path d="M137.7,126.4c-.4,0-.8-.2-1.1-.5-.3-.3-.5-.7-.5-1.1v-17.5c0-.4.2-.8.5-1.1.3-.3.7-.5,1.1-.5h9.6c.4,0,.8.2,1.1.5.3.3.5.7.5,1.1s-.2.8-.5,1.1-.7.5-1.1.5h-7c-.2,0-.3,0-.3.3v4.6c0,.2,0,.3.3.3h6.5c.4,0,.8.2,1.1.5.3.3.4.7.4,1.1s-.1.8-.4,1.1-.7.4-1.1.4h-6.5c-.2,0-.3,0-.3.3v5.7c0,.2,0,.3.3.3h7c.4,0,.8.2,1.1.5.3.3.5.7.5,1.1s-.2.8-.5,1.1c-.3.3-.7.5-1.1.5h-9.6Z"/>
      <path d="M154.8,126.4c-.4,0-.8-.2-1.1-.5-.3-.3-.5-.7-.5-1.1v-17.5c0-.4.2-.8.5-1.1.3-.3.7-.5,1.1-.5h.7c.5,0,.9.1,1.4.4.4.3.7.6.9,1l5,10.7s0,0,0,0,0,0,0,0l5-10.7c.2-.4.5-.8.9-1,.4-.3.9-.4,1.4-.4h.8c.4,0,.8.2,1.1.5.3.3.5.7.5,1.1v17.5c0,.4-.2.8-.5,1.1-.3.3-.7.5-1.1.5h-.6c-.4,0-.8-.2-1.1-.5-.3-.3-.5-.7-.5-1.1v-12.3s0,0,0,0,0,0,0,0l-3.4,7.3c-.2.4-.5.8-1,1.1-.4.3-.9.4-1.3.4h-.2c-.5,0-.9-.1-1.3-.4-.4-.3-.7-.6-.9-1.1l-3.4-7.3s0,0,0,0,0,0,0,0v12.3c0,.4-.2.8-.5,1.1s-.7.5-1.1.5h-.5Z"/>
      <path d="M178.5,126.5c-.5,0-.8-.2-1.1-.6-.3-.3-.5-.8-.5-1.2v-17.2c0-.5.2-.9.5-1.2.3-.3.7-.5,1.2-.6,1.4-.2,2.8-.2,4.1-.2,5.3,0,7.9,1.7,7.9,5.2s-.4,2.2-1.2,3c-.8.8-1.8,1.4-3.1,1.6,0,0,0,0,0,0,0,0,0,0,0,0,1.5.2,2.8.8,3.6,1.7s1.3,2,1.3,3.4c0,2.1-.7,3.6-2,4.7-1.4,1-3.5,1.6-6.4,1.6s-2.9,0-4.4-.2ZM180.9,109v4.8c0,.2,0,.3.2.3h.8c1.8,0,3-.2,3.8-.7.8-.5,1.2-1.2,1.2-2.1s-.3-1.6-1-2c-.6-.4-1.7-.7-3.1-.7s-1.2,0-1.7.1c-.2,0-.2.1-.2.3ZM180.9,117.2v6c0,.2,0,.2.3.3.7,0,1.3.1,1.9.1,1.6,0,2.7-.3,3.4-.9.7-.6,1.1-1.5,1.1-2.7s-.4-1.8-1.3-2.3c-.8-.5-2.2-.8-4.2-.8h-1c-.2,0-.2,0-.2.2Z"/>
      <path d="M196.1,126.4c-.4,0-.8-.2-1.1-.5-.3-.3-.5-.7-.5-1.1v-17.3c0-.5.2-.9.5-1.2.3-.4.7-.6,1.1-.6,1.6-.2,3.2-.2,4.6-.2,2.8,0,4.9.5,6.2,1.5,1.4,1,2.1,2.5,2.1,4.4s-.4,2.5-1.1,3.5c-.7,1-1.7,1.7-2.9,2.2,0,0,0,0,0,0,0,0,0,0,0,0,.9.6,1.7,1.7,2.3,3.3l1.7,4.5c.1.4,0,.7-.1,1-.2.3-.5.5-.9.5h-.9c-.5,0-.9-.1-1.3-.4-.4-.3-.7-.6-.9-1.1l-1.6-4.4c-.3-.9-.7-1.5-1.2-1.8s-1.2-.4-2.2-.4h-1.3c-.2,0-.3,0-.3.3v6.2c0,.4-.2.8-.5,1.1-.3.3-.7.5-1.1.5h-.7ZM198.4,109v6.2c0,.2,0,.2.3.2h1.4c3.4,0,5-1.2,5-3.6s-1.6-3.2-4.7-3.2-1.2,0-1.8.1c-.2,0-.3.1-.3.3Z"/>
      <path d="M227.3,123.9c-1.7,1.9-4,2.8-6.9,2.8s-5.2-.9-6.9-2.8-2.5-4.5-2.5-7.8.8-6,2.5-7.8,4-2.8,6.9-2.8,5.2.9,6.9,2.8,2.5,4.5,2.5,7.8-.8,6-2.5,7.8ZM225.7,116.1c0-4.9-1.8-7.4-5.4-7.4s-5.4,2.5-5.4,7.4,1.8,7.4,5.4,7.4,5.4-2.5,5.4-7.4Z"/>
      <path d="M235.2,126.4c-.4,0-.8-.2-1.1-.5-.3-.3-.5-.7-.5-1.1v-17.5c0-.4.2-.8.5-1.1.3-.3.7-.5,1.1-.5h1.1c.4,0,.8.2,1.1.5.3.3.5.7.5,1.1v17.5c0,.4-.2.8-.5,1.1-.3.3-.7.5-1.1.5h-1.1Z"/>
      <path d="M244.6,126.5c-.5,0-.9-.3-1.2-.6-.3-.3-.5-.8-.5-1.2v-17.2c0-.5.2-.9.5-1.2.3-.3.7-.6,1.2-.6,1.2-.1,2.6-.2,4.1-.2,3.4,0,5.9.9,7.7,2.6,1.8,1.8,2.7,4.3,2.7,7.7s-.9,6.4-2.7,8.2c-1.8,1.8-4.4,2.7-7.7,2.7s-2.8,0-4.1-.2ZM246.9,109v14.1c0,.1,0,.2.2.3.6,0,1.2.1,1.7.1,2.2,0,3.8-.6,4.9-1.8,1-1.2,1.6-3.2,1.6-5.9s-.5-4.3-1.6-5.4c-1.1-1.2-2.7-1.7-4.8-1.7s-1.1,0-1.7.1c-.2,0-.2.1-.2.3Z"/>
      <path d="M263.9,126.4c-.4,0-.8-.2-1.1-.5-.3-.3-.5-.7-.5-1.1v-17.5c0-.4.2-.8.5-1.1.3-.3.7-.5,1.1-.5h9.6c.4,0,.8.2,1.1.5.3.3.5.7.5,1.1s-.2.8-.5,1.1-.7.5-1.1.5h-7c-.2,0-.3,0-.3.3v4.6c0,.2,0,.3.3.3h6.5c.4,0,.8.2,1.1.5.3.3.4.7.4,1.1s-.1.8-.4,1.1c-.3.3-.7.4-1.1.4h-6.5c-.2,0-.3,0-.3.3v5.7c0,.2,0,.3.3.3h7c.4,0,.8.2,1.1.5.3.3.5.7.5,1.1s-.2.8-.5,1.1c-.3.3-.7.5-1.1.5h-9.6Z"/>
      <path d="M280.9,126.4c-.4,0-.8-.2-1.1-.5-.3-.3-.5-.7-.5-1.1v-17.3c0-.5.2-.9.5-1.2.3-.4.7-.6,1.1-.6,1.6-.2,3.2-.2,4.6-.2,2.8,0,4.9.5,6.2,1.5,1.4,1,2.1,2.5,2.1,4.4s-.4,2.5-1.1,3.5c-.7,1-1.7,1.7-2.9,2.2,0,0,0,0,0,0,0,0,0,0,0,0,.9.6,1.7,1.7,2.3,3.3l1.7,4.5c.1.4,0,.7-.1,1-.2.3-.5.5-.9.5h-.9c-.5,0-.9-.1-1.3-.4-.4-.3-.7-.6-.9-1.1l-1.6-4.4c-.3-.9-.7-1.5-1.2-1.8s-1.2-.4-2.2-.4h-1.3c-.2,0-.3,0-.3.3v6.2c0,.4-.2.8-.5,1.1-.3.3-.7.5-1.1.5h-.7ZM283.2,109v6.2c0,.2,0,.2.3.2h1.4c3.4,0,5-1.2,5-3.6s-1.6-3.2-4.7-3.2-1.2,0-1.8.1c-.2,0-.3.1-.3.3Z"/>
      <path d="M300.6,118l-6-10.9c-.2-.3-.2-.6,0-.9.2-.3.5-.5.8-.5h1.4c.5,0,.9.1,1.4.4.4.3.7.6.9,1l3.7,7.8s0,0,0,0,0,0,0,0l3.7-7.8c.2-.4.5-.8.9-1,.4-.3.9-.4,1.4-.4h1.2c.4,0,.6.2.8.5.2.3.2.6,0,.9l-6,10.9c0,.2-.1.3-.1.5v6.3c0,.4-.2.8-.5,1.1-.3.3-.7.5-1.1.5h-.9c-.4,0-.8-.2-1.1-.5-.3-.3-.5-.7-.5-1.1v-6.3c0-.2,0-.3-.1-.5Z"/>
      <path d="M323.5,126.4c-.4,0-.8-.2-1.1-.5-.3-.3-.5-.7-.5-1.1v-17.3c0-.5.2-.9.5-1.2.3-.4.7-.6,1.1-.6,1.6-.2,3.2-.2,4.6-.2,2.8,0,4.9.5,6.2,1.5,1.4,1,2.1,2.5,2.1,4.4s-.4,2.5-1.1,3.5c-.7,1-1.7,1.7-2.9,2.2,0,0,0,0,0,0,0,0,0,0,0,0,.9.6,1.7,1.7,2.3,3.3l1.7,4.5c.1.4,0,.7-.1,1-.2.3-.5.5-.9.5h-.9c-.5,0-.9-.1-1.3-.4-.4-.3-.7-.6-.9-1.1l-1.6-4.4c-.3-.9-.7-1.5-1.2-1.8s-1.2-.4-2.2-.4h-1.3c-.2,0-.3,0-.3.3v6.2c0,.4-.2.8-.5,1.1-.3.3-.7.5-1.1.5h-.7ZM325.7,109v6.2c0,.2,0,.2.3.2h1.4c3.4,0,5-1.2,5-3.6s-1.6-3.2-4.7-3.2-1.2,0-1.8.1c-.2,0-.3.1-.3.3Z"/>
      <path d="M339.9,126.4c-.4,0-.7-.2-.9-.5-.2-.3-.3-.7-.1-1l5.9-17.6c.2-.5.4-.8.8-1.1.4-.3.8-.4,1.3-.4h1c.5,0,.9.1,1.3.4.4.3.7.7.8,1.1l5.9,17.6c.1.4,0,.7-.1,1-.2.3-.5.5-.9.5h-1c-.5,0-.9-.1-1.3-.4-.4-.3-.6-.7-.8-1.1l-.9-3.2c0-.2-.1-.2-.3-.2h-6.4c-.2,0-.3,0-.3.2l-.9,3.2c-.1.5-.4.8-.8,1.1-.4.3-.8.4-1.3.4h-.9ZM347.2,109.2l-2.5,8.9c0,0,0,.1,0,.2s0,0,.1,0h4.7c0,0,.1,0,.1,0s0-.1,0-.2l-2.5-8.9s0,0,0,0,0,0,0,0Z"/>
      <path d="M360.2,126.4c-.4,0-.8-.2-1.1-.5-.3-.3-.5-.7-.5-1.1v-17.5c0-.4.2-.8.5-1.1.3-.3.7-.5,1.1-.5h.6c1.1,0,1.9.5,2.4,1.4l7,12.6s0,0,0,0,0,0,0,0v-12.4c0-.4.2-.8.5-1.1.3-.3.7-.5,1.1-.5h.6c.4,0,.8.2,1.1.5.3.3.5.7.5,1.1v17.5c0,.4-.2.8-.5,1.1-.3.3-.7.5-1.1.5h-.6c-1.1,0-1.9-.5-2.4-1.4l-7-12.6s0,0,0,0,0,0,0,0v12.4c0,.4-.2.8-.5,1.1s-.7.5-1.1.5h-.6Z"/>
      <path d="M387,126.7c-3,0-5.4-.9-7.1-2.8s-2.6-4.5-2.6-7.9.8-6,2.5-7.8c1.7-1.9,4.1-2.8,7.1-2.8s2.6,0,3.5.3c.5,0,.8.3,1.1.7.3.4.5.8.5,1.3v.2c0,.4-.2.7-.5.9-.3.2-.7.3-1.1.2-.9-.2-2-.4-3.1-.4-1.9,0-3.3.6-4.4,1.9-1.1,1.3-1.6,3.1-1.6,5.5s.6,4.2,1.7,5.5c1.1,1.3,2.6,1.9,4.4,1.9s2.3-.1,3.2-.3c.4,0,.7,0,1.1.2.3.2.5.5.5.9v.2c0,.5-.1.9-.4,1.3-.3.4-.7.6-1.1.7-1.1.2-2.3.3-3.6.3Z"/>
      <path d="M398.1,126.4c-.4,0-.8-.2-1.1-.5-.3-.3-.5-.7-.5-1.1v-17.5c0-.4.2-.8.5-1.1.3-.3.7-.5,1.1-.5h.8c.4,0,.8.2,1.1.5.3.3.5.7.5,1.1v6.4c0,.2,0,.2.2.2h7.1c.2,0,.2,0,.2-.2v-6.4c0-.4.2-.8.5-1.1.3-.3.7-.5,1.1-.5h.8c.4,0,.8.2,1.1.5.3.3.5.7.5,1.1v17.5c0,.4-.2.8-.5,1.1-.3.3-.7.5-1.1.5h-.8c-.4,0-.8-.2-1.1-.5-.3-.3-.5-.7-.5-1.1v-7.5c0-.2,0-.3-.2-.3h-7.1c-.2,0-.2,0-.2.3v7.5c0,.4-.2.8-.5,1.1-.3.3-.7.5-1.1.5h-.8Z"/>
    </g>
    <g id="rounded-outlilne-white">
      <path class="st9" d="M40.9,109c-.4,0-.8-.2-1.1-.5-.3-.3-.5-.7-.5-1.1h0c0-.5.2-.9.5-1.2.3-.3.7-.5,1.1-.5h12.1c.4,0,.8.2,1.1.5.3.3.5.7.5,1.1h0c0,.5-.2.9-.5,1.2-.3.3-.7.5-1.1.5h-3.8c-.2,0-.2,0-.2.3v15.5c0,.4-.2.8-.5,1.1-.3.3-.7.5-1.1.5h-.8c-.4,0-.8-.2-1.1-.5-.3-.3-.5-.7-.5-1.1v-15.5c0-.2,0-.3-.2-.3h-3.8Z"/>
      <path class="st9" d="M60,126.4c-.4,0-.8-.2-1.1-.5-.3-.3-.5-.7-.5-1.1v-17.5c0-.4.2-.8.5-1.1s.7-.5,1.1-.5h9.6c.4,0,.8.2,1.1.5.3.3.5.7.5,1.1s-.2.8-.5,1.1c-.3.3-.7.5-1.1.5h-7c-.2,0-.3,0-.3.3v4.6c0,.2,0,.3.3.3h6.5c.4,0,.8.2,1.1.5.3.3.4.7.4,1.1s-.1.8-.4,1.1c-.3.3-.7.4-1.1.4h-6.5c-.2,0-.3,0-.3.3v5.7c0,.2,0,.3.3.3h7c.4,0,.8.2,1.1.5.3.3.5.7.5,1.1s-.2.8-.5,1.1c-.3.3-.7.5-1.1.5h-9.6Z"/>
      <path class="st9" d="M75.8,126.4c-.4,0-.6-.2-.8-.5-.2-.3-.2-.6,0-1l4.7-8.8c0-.1,0-.3,0-.4l-4.6-8.6c-.2-.3-.2-.6,0-.9.2-.3.5-.5.8-.5h1.2c.5,0,.9.1,1.4.4.4.3.7.6.9,1l3,6.3s0,0,0,0,0,0,0,0l3-6.3c.2-.4.5-.8.9-1,.4-.3.9-.4,1.4-.4h1.1c.4,0,.7.2.8.5.2.3.2.6,0,.9l-4.6,8.6c0,.1,0,.3,0,.4l4.7,8.8c.2.3.2.6,0,1-.2.3-.5.5-.8.5h-1.3c-.5,0-.9-.1-1.4-.4-.4-.3-.7-.6-.9-1l-3-6.5s0,0,0,0,0,0,0,0l-3,6.5c-.2.4-.5.8-.9,1-.4.3-.9.4-1.4.4h-1.2Z"/>
      <path class="st9" d="M93.4,126.4c-.4,0-.7-.2-.9-.5-.2-.3-.3-.7-.1-1l5.9-17.6c.2-.5.4-.8.8-1.1.4-.3.8-.4,1.3-.4h1c.5,0,.9.1,1.3.4.4.3.7.7.8,1.1l5.9,17.6c.1.4,0,.7-.1,1-.2.3-.5.5-.9.5h-1c-.5,0-.9-.1-1.3-.4-.4-.3-.6-.7-.8-1.1l-.9-3.2c0-.2-.1-.2-.3-.2h-6.4c-.2,0-.3,0-.3.2l-.9,3.2c-.1.5-.4.8-.8,1.1-.4.3-.8.4-1.3.4h-.9ZM100.7,109.2l-2.5,8.9c0,0,0,.1,0,.2,0,0,0,0,.1,0h4.7c0,0,.1,0,.1,0s0-.1,0-.2l-2.5-8.9s0,0,0,0,0,0,0,0Z"/>
      <path class="st9" d="M117.3,117.7c-2.3-.8-3.9-1.7-4.9-2.8-1-1.1-1.5-2.4-1.5-3.9s.6-3.1,1.7-4.1c1.2-1,2.8-1.5,4.8-1.5s3.3.2,4.6.6c.5.1.8.4,1.1.8.3.4.4.9.4,1.3v.3c0,.4-.2.6-.5.8-.3.2-.7.2-1,0-1.4-.5-2.9-.8-4.3-.8s-1.7.2-2.2.7c-.5.4-.7,1-.7,1.8,0,1.4.9,2.3,2.7,2.9,2.6.8,4.3,1.7,5.3,2.8s1.5,2.4,1.5,4c0,4-2.4,6-7.3,6s-2.9-.2-4.2-.7c-.5-.2-.8-.5-1.1-.9-.3-.4-.4-.9-.4-1.4v-.3c0-.4.2-.6.5-.8.3-.2.6-.2.9,0,1.2.6,2.6.9,3.9.9,2.4,0,3.6-.9,3.6-2.7s-.2-1.3-.7-1.8c-.5-.5-1.2-.9-2.3-1.3Z"/>
      <path class="st9" d="M137.7,126.4c-.4,0-.8-.2-1.1-.5-.3-.3-.5-.7-.5-1.1v-17.5c0-.4.2-.8.5-1.1.3-.3.7-.5,1.1-.5h9.6c.4,0,.8.2,1.1.5.3.3.5.7.5,1.1s-.2.8-.5,1.1-.7.5-1.1.5h-7c-.2,0-.3,0-.3.3v4.6c0,.2,0,.3.3.3h6.5c.4,0,.8.2,1.1.5.3.3.4.7.4,1.1s-.1.8-.4,1.1-.7.4-1.1.4h-6.5c-.2,0-.3,0-.3.3v5.7c0,.2,0,.3.3.3h7c.4,0,.8.2,1.1.5.3.3.5.7.5,1.1s-.2.8-.5,1.1c-.3.3-.7.5-1.1.5h-9.6Z"/>
      <path class="st9" d="M154.8,126.4c-.4,0-.8-.2-1.1-.5-.3-.3-.5-.7-.5-1.1v-17.5c0-.4.2-.8.5-1.1.3-.3.7-.5,1.1-.5h.7c.5,0,.9.1,1.4.4.4.3.7.6.9,1l5,10.7s0,0,0,0,0,0,0,0l5-10.7c.2-.4.5-.8.9-1,.4-.3.9-.4,1.4-.4h.8c.4,0,.8.2,1.1.5.3.3.5.7.5,1.1v17.5c0,.4-.2.8-.5,1.1-.3.3-.7.5-1.1.5h-.6c-.4,0-.8-.2-1.1-.5-.3-.3-.5-.7-.5-1.1v-12.3s0,0,0,0,0,0,0,0l-3.4,7.3c-.2.4-.5.8-1,1.1-.4.3-.9.4-1.3.4h-.2c-.5,0-.9-.1-1.3-.4-.4-.3-.7-.6-.9-1.1l-3.4-7.3s0,0,0,0,0,0,0,0v12.3c0,.4-.2.8-.5,1.1s-.7.5-1.1.5h-.5Z"/>
      <path class="st9" d="M178.5,126.5c-.5,0-.8-.2-1.1-.6-.3-.3-.5-.8-.5-1.2v-17.2c0-.5.2-.9.5-1.2.3-.3.7-.5,1.2-.6,1.4-.2,2.8-.2,4.1-.2,5.3,0,7.9,1.7,7.9,5.2s-.4,2.2-1.2,3c-.8.8-1.8,1.4-3.1,1.6,0,0,0,0,0,0,0,0,0,0,0,0,1.5.2,2.8.8,3.6,1.7s1.3,2,1.3,3.4c0,2.1-.7,3.6-2,4.7-1.4,1-3.5,1.6-6.4,1.6s-2.9,0-4.4-.2ZM180.9,109v4.8c0,.2,0,.3.2.3h.8c1.8,0,3-.2,3.8-.7.8-.5,1.2-1.2,1.2-2.1s-.3-1.6-1-2c-.6-.4-1.7-.7-3.1-.7s-1.2,0-1.7.1c-.2,0-.2.1-.2.3ZM180.9,117.2v6c0,.2,0,.2.3.3.7,0,1.3.1,1.9.1,1.6,0,2.7-.3,3.4-.9.7-.6,1.1-1.5,1.1-2.7s-.4-1.8-1.3-2.3c-.8-.5-2.2-.8-4.2-.8h-1c-.2,0-.2,0-.2.2Z"/>
      <path class="st9" d="M196.1,126.4c-.4,0-.8-.2-1.1-.5-.3-.3-.5-.7-.5-1.1v-17.3c0-.5.2-.9.5-1.2.3-.4.7-.6,1.1-.6,1.6-.2,3.2-.2,4.6-.2,2.8,0,4.9.5,6.2,1.5,1.4,1,2.1,2.5,2.1,4.4s-.4,2.5-1.1,3.5c-.7,1-1.7,1.7-2.9,2.2,0,0,0,0,0,0,0,0,0,0,0,0,.9.6,1.7,1.7,2.3,3.3l1.7,4.5c.1.4,0,.7-.1,1-.2.3-.5.5-.9.5h-.9c-.5,0-.9-.1-1.3-.4-.4-.3-.7-.6-.9-1.1l-1.6-4.4c-.3-.9-.7-1.5-1.2-1.8s-1.2-.4-2.2-.4h-1.3c-.2,0-.3,0-.3.3v6.2c0,.4-.2.8-.5,1.1-.3.3-.7.5-1.1.5h-.7ZM198.4,109v6.2c0,.2,0,.2.3.2h1.4c3.4,0,5-1.2,5-3.6s-1.6-3.2-4.7-3.2-1.2,0-1.8.1c-.2,0-.3.1-.3.3Z"/>
      <path class="st9" d="M227.3,123.9c-1.7,1.9-4,2.8-6.9,2.8s-5.2-.9-6.9-2.8-2.5-4.5-2.5-7.8.8-6,2.5-7.8,4-2.8,6.9-2.8,5.2.9,6.9,2.8,2.5,4.5,2.5,7.8-.8,6-2.5,7.8ZM225.7,116.1c0-4.9-1.8-7.4-5.4-7.4s-5.4,2.5-5.4,7.4,1.8,7.4,5.4,7.4,5.4-2.5,5.4-7.4Z"/>
      <path class="st9" d="M235.2,126.4c-.4,0-.8-.2-1.1-.5-.3-.3-.5-.7-.5-1.1v-17.5c0-.4.2-.8.5-1.1.3-.3.7-.5,1.1-.5h1.1c.4,0,.8.2,1.1.5.3.3.5.7.5,1.1v17.5c0,.4-.2.8-.5,1.1-.3.3-.7.5-1.1.5h-1.1Z"/>
      <path class="st9" d="M244.6,126.5c-.5,0-.9-.3-1.2-.6-.3-.3-.5-.8-.5-1.2v-17.2c0-.5.2-.9.5-1.2.3-.3.7-.6,1.2-.6,1.2-.1,2.6-.2,4.1-.2,3.4,0,5.9.9,7.7,2.6,1.8,1.8,2.7,4.3,2.7,7.7s-.9,6.4-2.7,8.2c-1.8,1.8-4.4,2.7-7.7,2.7s-2.8,0-4.1-.2ZM246.9,109v14.1c0,.1,0,.2.2.3.6,0,1.2.1,1.7.1,2.2,0,3.8-.6,4.9-1.8,1-1.2,1.6-3.2,1.6-5.9s-.5-4.3-1.6-5.4c-1.1-1.2-2.7-1.7-4.8-1.7s-1.1,0-1.7.1c-.2,0-.2.1-.2.3Z"/>
      <path class="st9" d="M263.9,126.4c-.4,0-.8-.2-1.1-.5-.3-.3-.5-.7-.5-1.1v-17.5c0-.4.2-.8.5-1.1.3-.3.7-.5,1.1-.5h9.6c.4,0,.8.2,1.1.5.3.3.5.7.5,1.1s-.2.8-.5,1.1-.7.5-1.1.5h-7c-.2,0-.3,0-.3.3v4.6c0,.2,0,.3.3.3h6.5c.4,0,.8.2,1.1.5.3.3.4.7.4,1.1s-.1.8-.4,1.1c-.3.3-.7.4-1.1.4h-6.5c-.2,0-.3,0-.3.3v5.7c0,.2,0,.3.3.3h7c.4,0,.8.2,1.1.5.3.3.5.7.5,1.1s-.2.8-.5,1.1c-.3.3-.7.5-1.1.5h-9.6Z"/>
      <path class="st9" d="M280.9,126.4c-.4,0-.8-.2-1.1-.5-.3-.3-.5-.7-.5-1.1v-17.3c0-.5.2-.9.5-1.2.3-.4.7-.6,1.1-.6,1.6-.2,3.2-.2,4.6-.2,2.8,0,4.9.5,6.2,1.5,1.4,1,2.1,2.5,2.1,4.4s-.4,2.5-1.1,3.5c-.7,1-1.7,1.7-2.9,2.2,0,0,0,0,0,0,0,0,0,0,0,0,.9.6,1.7,1.7,2.3,3.3l1.7,4.5c.1.4,0,.7-.1,1-.2.3-.5.5-.9.5h-.9c-.5,0-.9-.1-1.3-.4-.4-.3-.7-.6-.9-1.1l-1.6-4.4c-.3-.9-.7-1.5-1.2-1.8s-1.2-.4-2.2-.4h-1.3c-.2,0-.3,0-.3.3v6.2c0,.4-.2.8-.5,1.1-.3.3-.7.5-1.1.5h-.7ZM283.2,109v6.2c0,.2,0,.2.3.2h1.4c3.4,0,5-1.2,5-3.6s-1.6-3.2-4.7-3.2-1.2,0-1.8.1c-.2,0-.3.1-.3.3Z"/>
      <path class="st9" d="M300.6,118l-6-10.9c-.2-.3-.2-.6,0-.9.2-.3.5-.5.8-.5h1.4c.5,0,.9.1,1.4.4.4.3.7.6.9,1l3.7,7.8s0,0,0,0,0,0,0,0l3.7-7.8c.2-.4.5-.8.9-1,.4-.3.9-.4,1.4-.4h1.2c.4,0,.6.2.8.5.2.3.2.6,0,.9l-6,10.9c0,.2-.1.3-.1.5v6.3c0,.4-.2.8-.5,1.1-.3.3-.7.5-1.1.5h-.9c-.4,0-.8-.2-1.1-.5-.3-.3-.5-.7-.5-1.1v-6.3c0-.2,0-.3-.1-.5Z"/>
      <path class="st9" d="M323.5,126.4c-.4,0-.8-.2-1.1-.5-.3-.3-.5-.7-.5-1.1v-17.3c0-.5.2-.9.5-1.2.3-.4.7-.6,1.1-.6,1.6-.2,3.2-.2,4.6-.2,2.8,0,4.9.5,6.2,1.5,1.4,1,2.1,2.5,2.1,4.4s-.4,2.5-1.1,3.5c-.7,1-1.7,1.7-2.9,2.2,0,0,0,0,0,0,0,0,0,0,0,0,.9.6,1.7,1.7,2.3,3.3l1.7,4.5c.1.4,0,.7-.1,1-.2.3-.5.5-.9.5h-.9c-.5,0-.9-.1-1.3-.4-.4-.3-.7-.6-.9-1.1l-1.6-4.4c-.3-.9-.7-1.5-1.2-1.8s-1.2-.4-2.2-.4h-1.3c-.2,0-.3,0-.3.3v6.2c0,.4-.2.8-.5,1.1-.3.3-.7.5-1.1.5h-.7ZM325.7,109v6.2c0,.2,0,.2.3.2h1.4c3.4,0,5-1.2,5-3.6s-1.6-3.2-4.7-3.2-1.2,0-1.8.1c-.2,0-.3.1-.3.3Z"/>
      <path class="st9" d="M339.9,126.4c-.4,0-.7-.2-.9-.5-.2-.3-.3-.7-.1-1l5.9-17.6c.2-.5.4-.8.8-1.1.4-.3.8-.4,1.3-.4h1c.5,0,.9.1,1.3.4.4.3.7.7.8,1.1l5.9,17.6c.1.4,0,.7-.1,1-.2.3-.5.5-.9.5h-1c-.5,0-.9-.1-1.3-.4-.4-.3-.6-.7-.8-1.1l-.9-3.2c0-.2-.1-.2-.3-.2h-6.4c-.2,0-.3,0-.3.2l-.9,3.2c-.1.5-.4.8-.8,1.1-.4.3-.8.4-1.3.4h-.9ZM347.2,109.2l-2.5,8.9c0,0,0,.1,0,.2s0,0,.1,0h4.7c0,0,.1,0,.1,0s0-.1,0-.2l-2.5-8.9s0,0,0,0,0,0,0,0Z"/>
      <path class="st9" d="M360.2,126.4c-.4,0-.8-.2-1.1-.5-.3-.3-.5-.7-.5-1.1v-17.5c0-.4.2-.8.5-1.1.3-.3.7-.5,1.1-.5h.6c1.1,0,1.9.5,2.4,1.4l7,12.6s0,0,0,0,0,0,0,0v-12.4c0-.4.2-.8.5-1.1.3-.3.7-.5,1.1-.5h.6c.4,0,.8.2,1.1.5.3.3.5.7.5,1.1v17.5c0,.4-.2.8-.5,1.1-.3.3-.7.5-1.1.5h-.6c-1.1,0-1.9-.5-2.4-1.4l-7-12.6s0,0,0,0,0,0,0,0v12.4c0,.4-.2.8-.5,1.1s-.7.5-1.1.5h-.6Z"/>
      <path class="st9" d="M387,126.7c-3,0-5.4-.9-7.1-2.8s-2.6-4.5-2.6-7.9.8-6,2.5-7.8c1.7-1.9,4.1-2.8,7.1-2.8s2.6,0,3.5.3c.5,0,.8.3,1.1.7.3.4.5.8.5,1.3v.2c0,.4-.2.7-.5.9-.3.2-.7.3-1.1.2-.9-.2-2-.4-3.1-.4-1.9,0-3.3.6-4.4,1.9-1.1,1.3-1.6,3.1-1.6,5.5s.6,4.2,1.7,5.5c1.1,1.3,2.6,1.9,4.4,1.9s2.3-.1,3.2-.3c.4,0,.7,0,1.1.2.3.2.5.5.5.9v.2c0,.5-.1.9-.4,1.3-.3.4-.7.6-1.1.7-1.1.2-2.3.3-3.6.3Z"/>
      <path class="st9" d="M398.1,126.4c-.4,0-.8-.2-1.1-.5-.3-.3-.5-.7-.5-1.1v-17.5c0-.4.2-.8.5-1.1.3-.3.7-.5,1.1-.5h.8c.4,0,.8.2,1.1.5.3.3.5.7.5,1.1v6.4c0,.2,0,.2.2.2h7.1c.2,0,.2,0,.2-.2v-6.4c0-.4.2-.8.5-1.1.3-.3.7-.5,1.1-.5h.8c.4,0,.8.2,1.1.5.3.3.5.7.5,1.1v17.5c0,.4-.2.8-.5,1.1-.3.3-.7.5-1.1.5h-.8c-.4,0-.8-.2-1.1-.5-.3-.3-.5-.7-.5-1.1v-7.5c0-.2,0-.3-.2-.3h-7.1c-.2,0-.2,0-.2.3v7.5c0,.4-.2.8-.5,1.1-.3.3-.7.5-1.1.5h-.8Z"/>
    </g>
  </g>
</svg>